<svg version="1.1" xmlns="http://www.w3.org/2000/svg" style="display: block;" viewBox="0 0 2048 1443" width="1250" height="881" preserveAspectRatio="none">
<path transform="translate(0,0)" fill="rgb(30,98,173)" d="M 0 0 L 2048 0 L 2048 1443 L 0 1443 L 0 0 z"/>
<path transform="translate(0,0)" fill="rgb(254,254,254)" d="M 768.451 425.935 C 816.397 425.337 865.511 425.872 913.542 425.869 L 1197.74 425.864 L 1351.89 425.851 C 1415.45 425.851 1488.28 422.384 1548.56 444.985 C 1585.28 458.749 1619.25 484.23 1634.75 521.32 C 1658.67 578.556 1641.05 645.71 1586.04 678.021 C 1573.37 685.556 1563.4 690.152 1549.75 695.745 C 1626.35 715.717 1671.03 773.672 1664.49 853.461 C 1661.09 895.031 1640 935.111 1607.25 961.274 C 1542.59 1012.92 1447.53 1015.86 1368.33 1016.9 C 1345.13 1017 1312.12 1016.33 1289.21 1014.23 C 1269.87 1013.55 1247.55 1010.71 1228.34 1008.39 C 1227.78 955.698 1228.3 902.012 1228.3 849.252 L 1228.34 537.2 L 1075.65 537.221 L 1075.66 1010.65 L 942.936 1010.64 L 942.97 537.215 L 802.808 537.251 C 800 525.858 794.564 509.976 791.022 498.495 L 768.451 425.935 z"/>
<path transform="translate(0,0)" fill="rgb(30,98,173)" d="M 1360.18 752.793 C 1420.55 752.541 1524.87 745.728 1524.84 836.926 C 1524.83 858.465 1516.04 877.028 1500.33 891.811 C 1499.79 892.266 1499.25 892.716 1498.7 893.162 C 1463.66 921.849 1403.4 921.036 1360.24 916.815 L 1360.18 752.793 z"/>
<path transform="translate(0,0)" fill="rgb(30,98,173)" d="M 1360.2 537.204 C 1414.14 537.048 1513.1 525.247 1508.83 607.082 C 1508.07 621.679 1503.03 630.539 1492.32 640.14 C 1464.16 660.476 1395.71 656.357 1360.21 656.352 L 1360.2 537.204 z"/>
<path transform="translate(0,0)" fill="rgb(254,254,254)" d="M 538.647 425.896 L 713.883 425.885 C 772.379 620.801 838.279 815.624 896.96 1010.57 C 850.396 1011.71 799.525 1010.68 752.615 1010.67 C 737.734 965.618 724.327 916.537 710.083 870.774 L 707.205 860.817 L 539.059 860.767 L 497.251 1010.73 L 359.762 1010.6 L 538.647 425.896 z"/>
<path transform="translate(0,0)" fill="rgb(30,98,173)" d="M 620.407 525.597 C 623.072 527.955 625.165 539.151 626.142 543.177 C 643.994 616.685 666.233 689.094 687.996 761.539 C 668.131 762.059 646.503 761.651 626.5 761.665 L 558.597 761.717 L 620.407 525.597 z"/>
</svg>