<svg version="1.1" xmlns="http://www.w3.org/2000/svg" style="display: block;" viewBox="0 0 1024 1024" width="256" height="256" preserveAspectRatio="none">
<path transform="translate(0,0)" fill="rgb(0,65,114)" d="M 0 0 L 1024 0 L 1024 1024 L 0 1024 L 0 0 z"/>
<path transform="translate(0,0)" fill="rgb(254,185,19)" d="M 416.834 160.964 L 613.049 160.94 C 612.454 219.995 614.997 286.738 612.59 344.656 C 583.222 375.059 551.384 404.503 521.67 434.645 C 519.434 436.913 516.734 440.616 514.732 443.133 C 501.014 422.885 438.489 364.104 417.936 346.66 L 418.075 481.911 C 406.138 481.198 390.959 481.799 378.799 481.67 C 347.119 481.336 314.957 482.315 283.316 481.622 C 313.903 515.299 347.569 545.616 379.356 578.641 C 352.211 603.514 327.648 631.16 300.798 656.333 C 293.757 662.934 287.876 670.145 280.881 676.71 C 264.706 677.214 245.65 676.651 229.249 676.588 L 97.9314 676.619 C 98.1407 668.93 98.1586 661.098 98.1375 653.399 C 97.9797 595.78 98.7152 538.025 98.0207 480.416 C 116.739 481.159 138.884 480.557 157.87 480.536 L 280.956 480.459 C 266.676 469.756 260.912 462.14 248.898 449.596 C 227.957 428.797 207.416 407.427 186.276 386.838 C 174.335 375.208 163.311 366.173 152.439 353.142 C 158.039 347.619 164.831 342.704 170.284 337.04 C 209.677 296.128 251.305 257.041 290.373 215.862 C 327.114 250.408 362.332 287.352 397.898 323.167 C 405.747 331.072 409.961 334.99 416.853 343.909 L 416.834 160.964 z"/>
<path transform="translate(0,0)" fill="rgb(254,185,19)" d="M 740.332 216.64 C 742.484 217.311 863.641 339.699 877.24 352.801 C 866.433 367.692 856.048 375.122 843.185 387.75 C 824.578 406.829 806.064 425.87 787.011 444.512 C 772.67 458.544 766.169 469.421 748.918 480.598 C 809.238 481.856 871.143 480.145 931.837 480.946 L 931.973 676.846 C 901.527 675.642 864.456 676.654 833.5 676.661 C 810.137 676.65 770.908 678.009 749.091 676.253 C 740.876 669.767 740.425 665.26 735.057 660.637 C 717.357 645.392 701.582 628.972 685 612.51 C 672.66 600.26 664.558 590.212 651.021 578.622 C 675.096 558.372 695.849 532.427 719.098 511.328 C 730.68 500.817 737.902 493.128 747.868 481.203 C 735.689 482.428 712.135 481.765 699.038 481.746 L 612.069 481.787 L 612.042 395.264 C 612.045 380.677 611.459 358.425 612.788 344.619 C 622.477 332.235 628.828 327.051 639.677 316.243 L 675.258 280.56 L 711.038 244.935 C 722.039 233.857 728.182 226.733 740.332 216.64 z"/>
<path transform="translate(0,0)" fill="rgb(254,185,19)" d="M 514.823 448.764 C 516.559 450.207 518.202 452.071 519.749 453.744 C 532.407 467.437 546.17 480.018 559.325 493.221 C 577.347 511.309 596.736 527.365 612.942 547.199 C 614.054 653.467 612.997 761.623 612.978 868.043 C 583.252 866.875 546.756 867.881 516.5 867.879 L 416.858 868.013 L 416.925 546.683 L 480.209 484.301 C 493.481 471.109 502.18 463.278 514.823 448.764 z"/>
</svg>