<svg version="1.1" xmlns="http://www.w3.org/2000/svg" style="display: block;" viewBox="0 0 2048 1135" width="812" height="450" preserveAspectRatio="none">
<path transform="translate(0,0)" fill="rgb(255,255,255)" d="M 0 0 L 2048 0 L 2048 1135 L 0 1135 L 0 0 z"/>
<path transform="translate(0,0)" fill="rgb(254,33,26)" d="M 1007.2 64.1803 C 1283.21 48.7711 1519.41 260.106 1534.68 536.122 C 1549.94 812.137 1338.48 1048.23 1062.46 1063.35 C 786.639 1078.46 550.759 867.19 535.506 591.379 C 520.252 315.568 731.397 79.578 1007.2 64.1803 z"/>
<path transform="translate(0,0)" fill="rgb(255,255,255)" d="M 1027.61 417.851 C 1031.62 417.977 1040.67 418.659 1043.46 416.524 C 1051.03 410.717 1059.81 397.647 1065.55 390.076 C 1079.7 371.625 1093.95 353.252 1108.31 334.956 C 1118.8 321.496 1129.47 306.088 1142.16 294.807 C 1151.11 286.897 1160.53 292.633 1166.87 300.78 C 1199.54 342.726 1238.92 384.668 1269.92 427.523 L 1270.16 631.577 C 1263.85 624.599 1250.93 606.302 1244.71 597.987 L 1197.29 534.669 C 1185.91 519.371 1172.77 497 1154.44 490.856 C 1139.68 490.443 1127.57 510.319 1118.99 521.31 L 1072.11 581.715 C 1042.5 619.89 1037.91 637.351 1004.15 590.028 C 983.962 561.732 959.175 533.151 938.223 505.196 C 910.788 468.589 891.315 512.667 874.084 532.797 C 849.834 565.58 823.53 598.342 800.379 631.827 C 798.834 566.346 799.738 494.122 800.138 428.373 C 805.503 418.978 822.212 397.32 829.665 388.932 C 852.75 362.951 886.805 309.189 914.624 290.949 C 931.985 289.032 946.144 317.792 956.52 328.36 C 977.143 349.364 1007.01 401.566 1027.61 417.851 z"/>
<path transform="translate(0,0)" fill="rgb(255,255,255)" d="M 800.111 631.812 C 846.609 633.299 899.06 632.113 946.078 632.099 L 1270 632.166 L 1270.06 780.969 C 1251.28 780.612 1231.92 780.793 1213.12 780.924 C 1075.54 781.885 937.596 779.518 800.046 781.17 L 800.111 631.812 z"/>
</svg>