<svg version="1.1" xmlns="http://www.w3.org/2000/svg" style="display: block;" viewBox="0 0 1024 1024" width="256" height="256" preserveAspectRatio="none">
<path transform="translate(0,0)" fill="rgb(255,255,255)" d="M 0 0 L 1024 0 L 1024 1024 L 0 1024 L 0 0 z"/>
<path transform="translate(0,0)" fill="rgb(6,152,168)" d="M 508.951 78.053 C 522.152 93.746 531.873 110.742 546.736 126.79 C 554.045 134.682 561.196 150.255 578.22 141.312 C 583.828 138.367 589.658 128.028 597.183 128.177 C 599.471 130.162 599.818 132.759 599.866 135.86 C 600.312 165.27 599.488 194.696 599.671 224.118 C 599.714 230.968 599.81 242.13 605.142 247.204 C 612.636 254.336 622.109 251.355 630.963 248.975 C 639.937 239.866 643.827 230.388 650.908 219.968 C 657.391 210.43 665.795 199.953 673.708 191.531 C 678.621 203.561 682.436 215.981 688.311 227.691 C 689.596 230.252 691.352 233.831 692.351 236.472 C 698.262 238.792 704.983 241.73 711.133 242.974 C 733.15 235.478 759.192 214.664 780.791 214.483 C 787.295 221.285 777.931 297.717 786.441 311.117 C 791.295 318.76 805.95 321.537 814.701 322.426 C 820.192 321.476 851.03 322.265 858.25 322.111 C 897.521 321.27 939.248 323.404 978.358 322.117 C 972.14 348.27 963.88 361.703 953.294 385.275 C 946.374 402.608 940.625 420.37 933.872 437.78 C 931.009 445.16 925.949 451.538 923.25 458.577 C 915.588 478.56 909.005 498.97 901.292 518.941 C 896.236 532.032 889.235 544.238 883.969 557.167 L 789.294 791.169 C 781.772 809.302 776.52 829.163 768.959 846.731 L 591.838 846.776 C 584.602 827.882 580.025 807.899 573.25 788.821 C 568.031 774.125 560.713 760.21 555.5 745.483 C 549.884 729.617 530.368 661.416 517.867 654.519 C 509.975 650.166 499.242 655.653 491.337 657.808 C 488.305 677.533 473.91 716.179 466.144 734.929 C 450.452 772.812 441.369 810.061 423.071 846.916 L 249.612 846.814 C 237.826 811.315 220.718 779.94 209.284 744.196 C 205.692 732.964 197.021 718.262 192.29 706.592 L 127.344 547.093 C 119.654 527.696 113.467 506.242 105.427 486.781 C 102.508 479.713 97.7305 473.632 94.6674 465.835 C 87.9566 448.752 82.6499 431.38 75.855 414.354 C 71.5285 403.512 64.1471 390.762 60.1064 380.237 C 53.1707 362.171 44.6935 340.499 39.694 322.011 C 91.5193 322.953 151.983 322.872 203.76 321.912 C 216.598 318.799 224.747 315.559 233.647 304.924 C 236.066 273.863 233.295 243.2 235.293 212.449 C 247.871 216.8 262.042 222.044 274.229 227.434 C 280.618 230.26 289.319 239.345 297.175 241.365 C 305.092 243.401 306.681 243.258 313.623 240.913 C 327.285 236.297 339.106 197.221 343.723 194.44 C 347.931 197.672 351.297 205.228 354.985 209.496 C 365.503 221.666 375.311 238.23 386.018 249.57 C 391.936 255.839 409.323 252.681 413.242 245.255 C 418.637 237.007 416.722 220.759 416.694 210.284 L 416.573 154.545 C 416.567 148.349 416.062 133.93 418.053 128.732 C 426.185 128.8 439.391 158.53 463.767 132.302 C 480.503 114.294 491.375 94.9625 508.951 78.053 z"/>
<path transform="translate(0,0)" fill="rgb(217,170,40)" d="M 508.951 78.053 C 522.152 93.746 531.873 110.742 546.736 126.79 C 554.045 134.682 561.196 150.255 578.22 141.312 C 583.828 138.367 589.658 128.028 597.183 128.177 C 599.471 130.162 599.818 132.759 599.866 135.86 C 600.312 165.27 599.488 194.696 599.671 224.118 C 599.714 230.968 599.81 242.13 605.142 247.204 C 612.636 254.336 622.109 251.355 630.963 248.975 C 639.937 239.866 643.827 230.388 650.908 219.968 C 657.391 210.43 665.795 199.953 673.708 191.531 C 678.621 203.561 682.436 215.981 688.311 227.691 C 689.596 230.252 691.352 233.831 692.351 236.472 C 698.262 238.792 704.983 241.73 711.133 242.974 C 733.15 235.478 759.192 214.664 780.791 214.483 C 787.295 221.285 777.931 297.717 786.441 311.117 C 791.295 318.76 805.95 321.537 814.701 322.426 C 806.766 353.037 797.651 363.517 786.9 389.438 L 720.896 548.15 C 713.319 566.105 708.452 585.25 700.102 602.806 C 698.823 605.088 696.77 606.857 694.524 608.075 C 670.922 620.871 659.849 595.589 652.883 577.923 C 647.927 565.353 643.479 553.456 638.389 541.254 C 633.498 529.531 625.644 518.612 620.424 507.118 L 587.599 435.743 C 568.757 394.775 553.635 331.655 491.637 346.798 C 459.121 354.741 451.281 387.962 438.74 413.34 C 425.373 434.098 418.657 460.02 407.762 481.05 C 393.719 508.153 381.647 533.707 370.663 562.083 C 370.405 562.751 348.228 605.364 349.406 604.24 C 324.021 628.461 313.193 594.694 306.221 574.839 C 290.377 538.009 274.553 501.855 258.92 465.491 C 244.518 431.99 235.471 398.182 218.206 365.183 C 214.291 357.701 205.249 330.035 203.76 321.912 C 216.598 318.799 224.747 315.559 233.647 304.924 C 236.066 273.863 233.295 243.2 235.293 212.449 C 247.871 216.8 262.042 222.044 274.229 227.434 C 280.618 230.26 289.319 239.345 297.175 241.365 C 305.092 243.401 306.681 243.258 313.623 240.913 C 327.285 236.297 339.106 197.221 343.723 194.44 C 347.931 197.672 351.297 205.228 354.985 209.496 C 365.503 221.666 375.311 238.23 386.018 249.57 C 391.936 255.839 409.323 252.681 413.242 245.255 C 418.637 237.007 416.722 220.759 416.694 210.284 L 416.573 154.545 C 416.567 148.349 416.062 133.93 418.053 128.732 C 426.185 128.8 439.391 158.53 463.767 132.302 C 480.503 114.294 491.375 94.9625 508.951 78.053 z"/>
</svg>