<svg version="1.1" xmlns="http://www.w3.org/2000/svg" style="display: block;" viewBox="0 0 1280 1280" width="320" height="320" preserveAspectRatio="none">
<path transform="translate(0,0)" fill="rgb(73,113,75)" d="M 0 0 L 1280 0 L 1280 1280 L 0 1280 L 0 0 z"/>
<path transform="translate(0,0)" fill="rgb(0,167,101)" d="M 175.719 63.8487 C 220.227 62.719 270.646 63.8632 315.597 63.8666 L 597.099 63.8725 L 930.324 63.8644 C 987.431 63.8605 1047.24 62.94 1104.13 63.9819 C 1104.78 98.7186 1104.23 135.349 1104.23 170.189 L 1104.24 373.108 L 1104.32 991.999 C 1076.01 993.85 1032.12 992.346 1002.25 992.344 L 801.48 992.344 L 175.813 992.387 C 174.457 878.252 175.56 761.382 175.604 647.076 L 175.719 63.8487 z"/>
<path transform="translate(0,0)" fill="rgb(254,254,254)" d="M 640.179 145.042 L 829.919 254.546 C 876.963 281.644 924.214 309.503 971.516 336.052 C 969.289 423.1 972.556 511.737 971.267 598.941 C 970.689 638.04 970.566 679.457 972.002 718.438 C 935.815 736.994 887.724 766.453 851.817 787.136 L 640.437 909.079 C 624.647 901.779 591.148 880.828 574.586 871.364 L 396.885 769.005 L 341.642 737.136 C 331.637 731.37 318.889 723.522 308.789 718.827 L 308.935 468.836 L 308.934 386.091 C 308.928 370.618 309.434 351.168 308.236 336.16 C 345.676 316.112 387.182 290.981 424.268 269.606 L 640.179 145.042 z"/>
<path transform="translate(0,0)" fill="rgb(0,167,101)" d="M 639.181 179.861 C 645.342 180.173 907.747 334.955 942.025 353.38 C 941.304 398.537 941.924 445.097 941.92 490.414 L 942.088 701.358 C 933.024 705.631 918.511 714.537 909.511 719.713 L 849.867 754.054 C 780.858 793.819 710.888 835.105 641.504 873.988 C 639.352 874.339 637.818 873.668 635.877 872.553 C 603.077 853.702 570.089 834.631 537.331 815.742 L 338.029 700.902 L 338.105 480.06 C 338.111 438.268 338.684 395.036 337.869 353.334 C 347.56 348.582 362.05 339.645 371.659 334.113 L 436.147 296.958 L 639.181 179.861 z"/>
<path transform="translate(0,0)" fill="rgb(254,254,254)" d="M 599.212 319.244 C 679.861 316.077 662.451 326.115 729.068 359.829 C 728.676 382.469 728.922 405.767 728.893 428.458 C 735.592 431.873 742.175 436.11 748.775 439.778 C 781.711 458.084 814.061 478.462 847.242 496.227 C 847.129 523.32 846.773 551.835 847.629 578.818 C 823.003 589.112 787.832 616.762 761.596 625.595 C 758.711 626.566 733.43 626.052 728.932 626.011 C 728.768 646.566 728.869 667.122 729.234 687.674 C 705.665 699.625 679.485 718.632 655.005 727.973 C 653.045 728.721 637.916 728.489 634.75 728.462 C 622.402 728.475 610.255 728.422 597.909 729.013 C 618.498 715.821 648.201 699.4 669.93 687.417 L 669.695 598.441 C 683.456 606.467 697.172 614.569 710.842 622.749 L 788.047 578.382 L 787.943 496.916 C 758.66 478.536 727.218 462.282 697.573 444.419 C 688.694 439.069 678.988 433.525 669.738 428.86 C 670.109 406.235 669.838 382.827 669.878 360.137 C 648.415 348.565 627.434 335.511 606.081 323.697 C 603.665 322.361 601.44 320.867 599.212 319.244 z"/>
<path transform="translate(0,0)" fill="rgb(254,254,254)" d="M 538.618 448.978 C 541.75 448.976 565.479 463.717 569.739 466.258 C 547.182 477.064 514.694 497.162 492.045 510.316 C 492.035 530.219 491.605 552.321 492.64 572.012 C 497.95 574.576 504.851 578.637 510.407 581.485 L 480.662 598.859 C 475.991 597.395 441.673 576.119 432.927 571.953 L 432.942 509.742 C 464.731 493.23 507.422 467.45 538.618 448.978 z"/>
<path transform="translate(0,0)" fill="rgb(254,254,254)" d="M 657.301 449.123 C 660.352 449.161 683.322 463.435 687.717 466.058 C 682.616 469.146 674.942 473.004 669.534 475.934 C 670.595 493.756 669.864 519.657 669.898 537.843 C 692.536 549.527 718.688 565.618 741.021 578.579 C 731.865 583.087 719.794 590.343 710.668 595.485 C 706.112 592.389 699.917 588.748 695.006 586.107 C 666.762 570.923 638.648 552.044 610.119 537.713 L 610.041 475.798 C 623.86 469.22 643.121 457.027 657.301 449.123 z"/>
<path transform="translate(0,0)" fill="rgb(254,254,254)" d="M 597.56 346.887 C 601.444 346.853 624.01 360.914 628.479 363.58 C 622.313 366.981 616.175 370.43 610.064 373.928 C 610.237 392.117 610.277 410.306 610.185 428.495 C 616.468 431.436 622.408 435.039 628.409 438.524 L 598.353 455.67 C 585.693 448.76 563.71 434.109 551.131 429.023 C 551.282 410.503 551.249 391.983 551.032 373.464 C 563.023 367.877 585.309 354.041 597.56 346.887 z"/>
<path transform="translate(0,0)" fill="rgb(254,254,254)" d="M 644.885 585.355 C 646.498 587.156 646.288 615.018 646.724 619.795 C 637.573 623.561 621.514 633.306 612.471 638.516 C 592.537 649.963 572.673 661.532 552.881 673.224 L 551.632 672.216 C 550.609 666.119 551.025 646.868 551.03 639.722 C 580.247 623.024 616.976 603.19 644.885 585.355 z"/>
<path transform="translate(0,0)" fill="rgb(254,254,254)" d="M 644.788 646.987 L 645.237 647.416 C 646.654 650.715 646.248 669.449 646.267 674.332 C 633.253 680.282 611.68 693.65 598.306 701.224 C 594.003 698.489 588.966 695.692 584.52 693.085 L 574.439 687.127 C 594.506 677.169 625.013 658.757 644.788 646.987 z"/>
<path transform="translate(0,0)" fill="rgb(254,254,254)" d="M 598.378 558.013 C 600.4 558.424 618.339 569.069 623.226 571.427 C 609.549 577.692 580.749 595.548 566.483 603.885 L 551.172 612.496 L 550.924 585.237 C 564.165 578.657 584.933 565.756 598.378 558.013 z"/>
<path transform="translate(0,0)" fill="rgb(254,254,254)" d="M 526.688 598.821 C 528.447 601.454 527.994 621.524 528.004 625.995 C 513.127 625.82 498.249 625.925 483.376 626.311 L 482.806 625.802 C 483.671 623.103 520.846 602.591 526.688 598.821 z"/>
<path transform="translate(0,0)" fill="rgb(0,167,101)" d="M 788.177 1043.31 C 798.9 1042.72 809.653 1043 820.331 1044.15 C 821.89 1086.64 818.864 1131.8 820.746 1175.96 C 800.03 1176.71 784.847 1172.3 766.014 1181.04 C 757.259 1176.82 744.9 1175.99 738.437 1168.21 C 725.266 1152.36 727.125 1131 728.434 1112.15 C 721.599 1112.07 709.368 1111.2 703.547 1114.24 C 698.591 1120.75 700.854 1164.22 701.036 1175.54 C 688.872 1176.78 646.821 1177.02 633.884 1176.31 L 627.751 1169.51 L 625.627 1169.51 C 619.22 1175.98 610.526 1177.53 601.644 1180.35 C 573.055 1171.88 573.98 1166.27 576.1 1137.93 C 580.712 1132.33 584.392 1128.54 590.728 1125.02 C 594.64 1123.56 598.51 1122.16 602.468 1120.81 C 608.943 1118.6 619.71 1119.13 622.756 1111.9 C 623.065 1107.97 620.632 1104.12 618.815 1100.38 C 614.148 1100.03 608.684 1100.17 603.932 1100.18 C 598.426 1103.97 592.983 1109.4 586.554 1113.89 C 582.869 1107.37 575.301 1095.6 583.841 1090.65 C 612.554 1074.03 631.756 1073.83 652.045 1098.18 C 652.97 1114.72 652.052 1140.66 652.082 1157.96 C 655.187 1160.25 662.499 1164.82 664.07 1167.47 L 666.697 1171.9 L 668.252 1172.12 C 668.998 1169.15 667.867 1154.79 667.82 1150.11 L 667.567 1083.42 C 676.862 1083.78 692.846 1082.69 701.028 1085.69 C 707.5 1083.08 718.496 1077.82 725.146 1080.54 C 730.403 1086.77 727.273 1100.54 728.752 1111.38 L 728.924 1112.58 C 732.126 1106.26 734.65 1098.12 738.028 1091.01 C 754.973 1078.67 767.919 1077.53 787.48 1083.11 C 787.26 1072.65 786.697 1053.33 788.177 1043.31 z"/>
<path transform="translate(0,0)" fill="rgb(73,113,75)" d="M 771.571 1100.12 C 772.357 1100.07 773.143 1100.01 773.93 1099.97 C 777.509 1099.78 779.762 1099.28 782.429 1101.95 C 790.614 1110.13 787.943 1137.26 787.626 1149.16 C 784.03 1154.17 780.885 1157.17 775.987 1160.78 C 771.25 1160.08 769.493 1160.15 766.751 1155.98 C 758.029 1142.75 758.389 1123.99 764.106 1109.67 C 766.045 1104.81 767.303 1103.1 771.571 1100.12 z"/>
<path transform="translate(0,0)" fill="rgb(73,113,75)" d="M 622.571 1127.78 C 626.61 1133.97 624.318 1156.08 616.316 1159.7 C 613.456 1161 611.782 1159.83 609.236 1158.97 C 607.422 1155.93 605.425 1151.49 603.826 1148.19 C 609.114 1136.32 611.492 1134.37 622.571 1127.78 z"/>
<path transform="translate(0,0)" fill="rgb(0,167,101)" d="M 244.313 1043.54 C 274.943 1042.86 327.658 1038.19 347.201 1066.01 C 369.571 1097.86 364.609 1139.16 334.208 1163.16 C 304.652 1181.17 269.465 1176.5 235.178 1176.22 C 234.004 1133.54 236.331 1088.14 235.192 1043.96 L 244.313 1043.54 z"/>
<path transform="translate(0,0)" fill="rgb(73,113,75)" d="M 272.771 1064.03 C 282.224 1064.03 291.675 1064.22 301.12 1064.59 C 317.353 1076.54 324.552 1089.1 323.203 1109.53 C 321.996 1127.82 321.859 1136.88 308.109 1149.81 C 294.267 1159.65 284.61 1159.88 268.437 1159.62 C 268.224 1120.5 267.574 1102.18 272.771 1064.03 z"/>
<path transform="translate(0,0)" fill="rgb(0,167,101)" d="M 927.024 1080.4 C 930.106 1080.03 933.809 1079.78 936.902 1079.66 C 944.667 1079.38 952.223 1082.21 957.885 1087.53 C 971.112 1100.13 968.255 1119.82 968.212 1136.43 C 968.177 1149.66 967.956 1162.69 968.248 1175.95 C 957.9 1176.53 946.25 1176.5 935.795 1176.7 C 935.89 1157.71 936.205 1138.39 935.962 1119.38 C 935.781 1105.26 932.862 1103.83 919.489 1104.69 C 908.103 1111.54 912.236 1162.05 912.354 1176.36 C 901.529 1176.37 890.704 1176.45 879.879 1176.59 L 879.875 1082.84 C 890.366 1083.02 904.602 1082.87 914.58 1085.31 L 927.024 1080.4 z"/>
<path transform="translate(0,0)" fill="rgb(0,167,101)" d="M 440.966 1172.65 C 440.059 1173.04 439.141 1173.41 438.214 1173.76 C 420.782 1180.26 403.473 1181.67 386.219 1173.44 C 376.375 1168.66 368.801 1160.21 365.125 1149.9 C 361.221 1138.73 363.039 1114.32 368.289 1103.67 C 373.347 1093.45 382.222 1085.63 392.997 1081.9 C 409.491 1076.38 429.39 1079.18 441.305 1092.44 C 447.052 1098.84 448.072 1103.09 450.636 1111.05 C 454.83 1107.66 453.578 1108.83 455.692 1103.47 C 456.057 1113.94 453.221 1123.2 459.725 1131.51 C 452.447 1133.4 441.223 1133.68 433.619 1132.91 C 425.411 1132.78 417.203 1132.73 408.994 1132.76 C 404.947 1132.81 398.478 1132.4 395.76 1135.19 C 401.237 1170.88 423.549 1159.12 446.766 1152.15 C 452.215 1156.87 444.036 1168.49 440.966 1172.65 z"/>
<path transform="translate(0,0)" fill="rgb(42,119,75)" d="M 450.636 1111.05 C 454.83 1107.66 453.578 1108.83 455.692 1103.47 C 456.057 1113.94 453.221 1123.2 459.725 1131.51 C 452.447 1133.4 441.223 1133.68 433.619 1132.91 C 437.938 1132.17 447.654 1131.91 452.398 1131.65 C 451.419 1124.36 452.002 1119.02 450.636 1111.05 z"/>
<path transform="translate(0,0)" fill="rgb(73,113,75)" d="M 406.674 1095.01 C 415.887 1096.07 423.073 1104.76 418.094 1113.52 C 415.423 1115.83 412.267 1115.38 408.505 1115.5 C 406.853 1115.55 405.2 1115.57 403.547 1115.57 C 399.051 1115.55 398.94 1115.25 396.332 1112.61 C 393.988 1105.7 400.493 1097.16 406.674 1095.01 z"/>
<path transform="translate(0,0)" fill="rgb(0,167,101)" d="M 1008.77 1079.29 C 1025.82 1078.57 1030.32 1082.3 1045.51 1090.27 C 1043.51 1094.12 1042.04 1097.01 1040.93 1101.25 C 1039.63 1106.21 1040.07 1112.67 1033.86 1112.68 C 1026.83 1108.78 1021.84 1095.95 1013.03 1095.54 C 1009.37 1095.37 1004.13 1096.62 1001.34 1099.15 C 998.446 1109.53 1021.96 1115.01 1029.61 1118.88 C 1047.32 1127.85 1053.33 1141.27 1044.15 1159.51 C 1037.39 1172.93 1026.45 1174.96 1013.25 1179.41 C 1006.48 1181.28 987.219 1177.43 982.3 1173.31 C 979.648 1167.44 976.712 1148.63 981.288 1143.96 C 989.234 1144.08 997.827 1161.4 1004.23 1162.88 C 1017.49 1165.96 1029.72 1153.86 1011.16 1146.33 C 997.499 1140.78 985.289 1133.82 976.124 1122.05 L 976.008 1121.28 C 973.017 1100.14 988.153 1082.23 1008.77 1079.29 z"/>
<path transform="translate(0,0)" fill="rgb(0,167,101)" d="M 455.692 1103.47 C 460.869 1092.13 465.148 1086.53 477.26 1081.82 C 490.553 1076.66 515.217 1078.65 520.803 1094.18 C 523.461 1101.56 518.172 1108.75 511.581 1111.7 C 504.756 1109.7 497.328 1088.93 483.821 1095.6 C 481.122 1096.93 479.087 1098.94 478.32 1101.82 C 480.819 1112.29 508.902 1118.22 519.034 1125.29 C 524.634 1136.31 524.816 1143.11 525.111 1155.57 C 515.025 1170.27 506.629 1177.1 488.709 1180.43 C 487.663 1180.62 486.613 1180.79 485.559 1180.93 L 484.451 1180.4 C 475.364 1176.15 462.129 1176.01 456.941 1170.51 C 455.701 1163.21 456.821 1152.08 460.464 1145.53 C 469.269 1139.99 478.838 1172.5 494.39 1163.1 C 497.596 1161.16 497.597 1161.36 498.995 1157.76 C 499.697 1144.69 470.597 1139.12 459.725 1131.51 C 453.221 1123.2 456.057 1113.94 455.692 1103.47 z"/>
<path transform="translate(0,0)" fill="rgb(0,167,101)" d="M 538.586 1076.4 C 549.207 1081.18 553.265 1083.66 563 1075.46 C 561.921 1077.38 561.094 1078.58 560.564 1080.74 C 564.275 1081.46 565.209 1081.64 567.9 1084.32 C 568.535 1095.35 564.539 1108.93 564.823 1120.51 C 565.758 1158.68 580.475 1187.84 546.947 1215.41 C 540.546 1216.2 518.606 1218.71 514.773 1213.43 C 518.628 1207.22 535.506 1199.95 535.662 1192.25 C 536.392 1156.24 535.345 1120.15 535.737 1084.12 C 537.233 1081.22 537.662 1079.47 538.586 1076.4 z"/>
<path transform="translate(0,0)" fill="rgb(42,119,75)" d="M 538.586 1076.4 C 549.207 1081.18 553.265 1083.66 563 1075.46 C 561.921 1077.38 561.094 1078.58 560.564 1080.74 C 564.275 1081.46 565.209 1081.64 567.9 1084.32 C 560.269 1084.24 542.063 1083.01 535.737 1084.12 C 537.233 1081.22 537.662 1079.47 538.586 1076.4 z"/>
<path transform="translate(0,0)" fill="rgb(0,167,101)" d="M 833.699 1082.7 C 844.687 1083.58 857.857 1083.9 868.818 1083.23 C 868.137 1103.32 867.167 1157.41 869.204 1175.55 C 864.697 1176.83 841.26 1176.46 835.089 1176.43 C 835.316 1153.22 836.768 1104.65 833.699 1082.7 z"/>
<path transform="translate(0,0)" fill="rgb(0,167,101)" d="M 538.586 1076.4 C 535.363 1071.55 530.419 1064.88 532.099 1058.77 C 541.551 1024.41 585.387 1051.93 563 1075.46 C 553.265 1083.66 549.207 1081.18 538.586 1076.4 z"/>
<path transform="translate(0,0)" fill="rgb(0,167,101)" d="M 842.762 1043.15 C 843.718 1043.09 844.674 1043.06 845.631 1043.04 C 868.45 1042.55 869.614 1052.08 868.556 1070.86 C 865.915 1071.97 861.099 1073.46 858.229 1074.45 C 833.203 1084.69 826.555 1054.43 842.762 1043.15 z"/>
</svg>