<svg version="1.1" xmlns="http://www.w3.org/2000/svg" style="display: block;" viewBox="0 0 1024 1024" width="256" height="256" preserveAspectRatio="none">
<path transform="translate(0,0)" fill="rgb(255,255,255)" d="M 0 0 L 1024 0 L 1024 1024 L 0 1024 L 0 0 z"/>
<path transform="translate(0,0)" fill="rgb(254,203,50)" d="M 452.674 201.423 C 470.894 199.619 497.018 200.977 515.933 201.002 L 626.424 200.999 L 709.268 200.963 C 725.681 200.961 745.82 200.138 761.845 202.418 C 781.053 205.15 801.051 226.242 801.568 245.83 C 802.097 265.93 801.932 285.449 801.859 305.335 L 801.799 411.876 L 801.848 513.559 C 801.852 530.032 802.338 561.312 800.139 576.923 C 797.65 594.596 782.902 634.292 771.004 647.41 C 747.597 673.216 722.459 698.744 698.247 723.998 L 653.784 770.24 C 638.469 786.011 620.492 806.323 599.571 813.899 C 577.778 821.791 553.263 831.582 530.118 833.432 C 510.422 834.596 483.586 833.842 463.368 833.831 L 340.468 833.764 L 266.713 833.903 C 252.276 833.934 235.776 834.523 221.598 832.705 C 214.399 831.782 198.669 821.955 193.132 817.307 C 183.057 808.848 181.057 795.183 180.486 782.676 C 179.655 764.461 179.93 745.607 179.924 727.269 L 179.903 631.598 L 179.916 533.619 C 179.929 498.564 178.746 461.789 186.507 427.437 C 189.868 412.557 206.746 389.306 216.898 378.419 C 243.371 350.514 268.688 322.602 295.61 295.007 C 317.11 272.969 344.728 241.897 369.382 224.083 C 387.648 210.885 430.073 202.882 452.674 201.423 z"/>
<path transform="translate(0,0)" fill="rgb(0,0,0)" d="M 580.393 395.403 C 592.79 394.105 612.304 398.721 623.939 402.835 C 647.72 411.245 666.724 422.736 677.819 446.339 C 693.779 480.293 693.719 533.696 682.675 568.928 C 675.394 592.154 659.536 608.184 638.112 618.661 C 649.828 639.638 659.567 645.77 675.848 662.256 C 677.236 663.661 676.945 665.389 676.467 667.104 C 666.805 671.446 639.681 668.19 628.503 665.12 C 610.367 658.776 600.543 640.877 587.386 635.259 C 565.144 625.763 532.701 626.205 512.673 608.224 C 490.17 588.022 479.809 564.493 478.2 534.469 C 476.114 495.535 475.67 461.096 501.83 430.378 C 521.202 407.631 551.698 397.728 580.393 395.403 z"/>
<path transform="translate(0,0)" fill="rgb(254,203,50)" d="M 581.979 438.409 C 595.303 437.781 613.493 441.693 623.568 451.315 C 648.699 475.315 648.454 543.433 628.432 570.284 C 618.213 583.989 601.007 587.488 585.464 588.687 C 575.094 588.669 556.48 585.992 549.151 578.991 C 517.613 548.856 517.64 487.602 543.567 453.911 C 553.653 440.804 567.508 439.932 581.979 438.409 z"/>
<path transform="translate(0,0)" fill="rgb(0,0,0)" d="M 348.602 401.457 C 377.047 400.414 429.271 400.245 457.478 401.938 C 454.595 417.31 449.42 425.769 439.172 437.099 C 422.819 443.536 370.216 441.149 348.745 441.154 L 348.951 494.158 C 380.112 494.813 420.475 495.204 451.458 494.106 C 449.365 545.947 385.806 535.935 348.964 535.74 L 348.822 566.75 L 348.823 586.755 C 384.462 587.176 420.536 586.645 456.292 586.924 C 455.852 633.772 412.089 626.252 378.477 626.21 L 301.004 626.19 L 300.744 497.603 C 300.742 477.127 299.622 454.554 301.818 434.323 C 304.839 406.503 325.785 401.951 348.602 401.457 z"/>
</svg>