<svg version="1.1" xmlns="http://www.w3.org/2000/svg" style="display: block;" viewBox="0 0 1440 1220" width="360" height="305" preserveAspectRatio="none">
<path transform="translate(0,0)" fill="rgb(242,242,241)" d="M 0 0 L 60.2254 0 L 119.969 0 L 179.971 0 L 239.982 0 L 362.778 0 L 1073.2 0 L 1200.19 0 L 1260.18 0 L 1319.99 0 L 1379.97 0 L 1440 0 L 1440 59.9364 L 1440 120.068 L 1440 179.318 L 1440 239.841 L 1440 420.193 L 1440 480.09 L 1440 539.721 L 1440 600.578 L 1440 659.82 L 1440 720.085 L 1440 779.925 L 1440 839.879 L 1440 960.064 L 1440 1020.28 L 1440 1200.45 L 1440 1220 L 1380.45 1220 L 1079.93 1220 L 1020.65 1220 L 720.301 1220 L 541.7 1220 L 0 1220 L 0 1199.86 L 0 1140.29 L 0 1079.7 L 0 1020.5 L 0 959.709 L 0 900.296 L 0 839.7 L 0 780.529 L 0 719.708 L 0 660.29 L 0 599.703 L 0 540.497 L 0 480.188 L 0 355.837 L 0 239.013 L 0 180.268 L 0 119.699 L 0 60.5366 L 0 0 z"/>
<path transform="translate(0,0)" fill="rgb(252,252,252)" d="M 1437 421 C 1426.37 421.082 1401.04 421.805 1391.68 420.15 L 1440 420.193 L 1440 480.09 L 1440 539.721 L 1440 600.578 L 1440 659.82 L 1440 720.085 L 1440 779.925 L 1440 839.879 L 1440 960.064 L 1440 1020.28 L 1440 1200.45 L 1440 1220 L 1380.45 1220 L 1079.93 1220 L 1020.65 1220 L 720.301 1220 L 541.7 1220 L 0 1220 L 0 1199.86 L 0 1140.29 L 0 1079.7 L 0 1020.5 L 0 959.709 L 0 900.296 L 0 839.7 L 0 780.529 L 0 719.708 L 0 660.29 L 0 599.703 L 0 540.497 L 0 480.188 C 17.9931 480.17 42.7998 480.926 60.2269 479.964 C 60.2282 473.002 59.3978 434.303 60.6058 430.293 C 61.6148 444.869 61.0695 464.024 61 479 C 68.4257 479.012 100.04 478.065 105.26 479.335 C 91.1338 480.31 74.5089 479.889 60.1877 479.871 L 59.7544 540.263 C 79.3448 540.209 100.787 540.578 120.229 539.886 C 120.234 532.884 119.835 491.496 120.607 487.244 C 121.6 503.125 121.07 522.789 121 539 C 132.761 538.98 155.821 538.348 166.649 539.436 C 151.234 540.033 135.366 539.796 119.911 539.765 C 119.777 559.906 119.751 580.048 119.832 600.189 C 137.681 600.182 163.032 600.975 180.265 599.965 C 180.27 592.916 180.033 584.414 180.784 577.52 C 180.9 584.679 180.972 591.84 181 599 C 193.773 599 212.792 598.528 225.062 599.461 C 210.063 599.839 195.059 599.986 180.055 599.902 C 179.844 619.997 179.783 640.092 179.872 660.188 C 197.549 660.186 223.185 660.985 240.227 659.884 C 240.23 653.147 239.87 610.055 240.611 606.255 C 241.606 622.467 241.067 642.474 241 659 C 253.96 658.971 277.466 658.285 289.575 659.469 C 273.04 659.818 256.501 659.906 239.964 659.733 C 239.816 679.899 239.786 700.067 239.871 720.234 C 258.124 720.199 282.464 720.899 300.213 719.944 C 300.176 709.983 299.487 671.209 300.772 663.682 C 301.018 682.12 301.094 700.56 301 719 C 319.431 719.074 337.862 718.961 356.29 718.66 C 337.477 720.244 319.697 719.875 300.847 719.816 C 299.183 729.965 299.844 767.781 299.771 780.278 C 319.181 780.192 341.02 780.613 360.215 779.957 C 360.204 770.643 358.957 724.821 360.622 718.856 C 361.889 734.74 361.015 762.266 361 779 L 419 779 C 419.011 762.038 418.286 737.97 419.342 721.573 C 420.856 735.704 420.024 765.006 419.877 780.211 C 439.501 780.201 460.751 780.617 480.234 780.121 C 480.211 770.262 479.402 734.115 480.415 726.331 C 481.889 740.686 480.977 763.936 481 779 L 539 779 C 539.01 760.887 538.41 738.349 539.345 720.588 C 540.883 739.628 539.322 761.016 539.909 780.294 C 557.643 780.246 583.14 780.988 600.236 779.927 C 600.222 772.201 599.617 731.433 600.438 726.32 C 601.885 741.039 600.985 763.606 601 779 L 659 779 C 659.011 762.096 658.28 737.91 659.345 721.585 C 660.858 736.743 659.959 764.134 659.882 780.202 C 679.617 780.191 700.61 780.559 720.234 780.128 C 720.21 770.208 719.392 734.194 720.407 726.333 C 721.891 740.579 720.977 764.028 721 779 L 779 779 C 779.009 762.111 778.288 738.088 779.359 721.765 C 780.677 741.317 779.283 760.99 779.909 780.294 C 798.081 780.236 822.583 780.92 840.227 779.946 C 840.215 774.354 839.806 725.753 840.607 724.861 C 841.824 738.255 841.017 764.655 841 779 L 899 779 C 899.008 762.64 898.24 737.511 899.391 721.845 C 900.847 737.738 899.981 763.556 899.892 780.198 C 919.392 780.193 940.921 780.657 960.248 780.101 L 960.176 726.316 C 961.682 732.824 961.039 769.818 961 779 L 1019 779 C 1019.01 760.755 1018.44 738.51 1019.35 720.584 C 1020.88 739.811 1019.28 760.939 1019.9 780.296 C 1040.01 780.371 1060.13 780.26 1080.24 779.963 C 1080.17 763.022 1079.31 734.953 1080.92 718.979 C 1097.57 720.683 1123.36 720.405 1140.24 719.897 C 1140.25 709.56 1137.79 668.342 1142.28 662.219 C 1147.79 658.177 1158.62 659.953 1165.51 660.044 C 1177.08 660.234 1188.66 660.202 1200.23 659.949 C 1200.15 646.083 1199.53 627.705 1200.24 614.216 C 1201.37 619.403 1201 651.421 1201 659 L 1259 659 L 1259 601 C 1246.05 601.077 1223.97 601.729 1211.87 600.415 C 1217.25 599.5 1251.69 600.203 1260.24 599.741 C 1260.02 588.444 1259.16 569.024 1260.27 558.232 L 1260.85 558.714 C 1261.35 571.084 1261 586.417 1261 599 L 1319 599 L 1319 541 C 1302.21 541.137 1285.43 541.04 1268.65 540.708 C 1279.32 539.437 1307.81 540.198 1320.21 540.074 C 1320.03 525.116 1320.08 510.156 1320.35 495.2 C 1321.38 500.789 1320.99 531.333 1321 539 L 1379 539 L 1379 481 C 1362.7 481.007 1345.62 481.242 1329.41 480.699 C 1341.64 479.17 1366.14 480.323 1380.22 479.911 C 1380.27 463.513 1380.16 447.115 1379.88 430.719 C 1381.98 441.062 1381.05 467.346 1381 479 L 1437 479 L 1437 421 z"/>
<path transform="translate(0,0)" fill="rgb(242,242,241)" d="M 600.271 780.049 C 619.422 779.979 640.917 779.444 659.882 780.202 L 660.102 840.035 L 616.44 840.152 C 611.63 839.54 609.243 839.734 604.427 840.759 C 601.691 841.051 602.599 841.324 600.357 840.2 C 599.112 828.786 600.152 792.842 600.271 780.049 z"/>
<path transform="translate(0,0)" fill="rgb(242,242,241)" d="M 840.232 780.01 C 859.447 779.956 880.85 779.452 899.892 780.198 C 900.393 799.584 900.002 820.526 900.001 840.03 C 884.354 840.062 854.63 839.261 840.236 840.755 C 839.687 821.68 839.981 799.076 840.232 780.01 z"/>
<path transform="translate(0,0)" fill="rgb(242,242,241)" d="M 1380.08 720.047 L 1440 720.085 L 1440 779.925 L 1379.96 780.095 L 1380.08 720.047 z"/>
<path transform="translate(0,0)" fill="rgb(242,242,241)" d="M 60.1345 600.352 C 73.5397 599.33 106.114 599.695 119.832 600.189 C 120.886 615.847 119.986 643.179 119.991 659.739 C 101.2 660.664 79.2959 659.727 59.866 660.284 C 60.4614 641.185 60.0246 619.693 60.1345 600.352 z"/>
<path transform="translate(0,0)" fill="rgb(242,242,241)" d="M 360.285 780.01 C 379.438 779.956 400.908 779.443 419.877 780.211 L 419.995 840.022 L 383.437 840.133 C 376.267 839.527 368.385 839.674 361.145 839.638 C 359.028 835.655 360.2 787.909 360.285 780.01 z"/>
<path transform="translate(0,0)" fill="rgb(242,242,241)" d="M 1320.2 660.052 L 1379.98 660.068 L 1380.02 719.395 C 1364.42 720.865 1336.93 719.985 1320.01 720.131 C 1320.35 700.315 1320.09 679.952 1320.2 660.052 z"/>
<path transform="translate(0,0)" fill="rgb(242,242,241)" d="M 960.201 780.317 C 972.316 779.591 1007.93 779.63 1019.9 780.296 C 1020.73 797.886 1020.02 821.657 1020.03 839.74 C 1002.15 840.701 978.581 839.85 960.009 840.194 C 960.293 820.411 960.074 800.179 960.201 780.317 z"/>
<path transform="translate(0,0)" fill="rgb(242,242,241)" d="M 1380.55 480.11 C 1399.41 479.563 1420.96 480.099 1440 480.09 L 1440 539.721 C 1423.65 540.78 1397.01 540.026 1379.96 540.105 C 1380.28 520.199 1379.72 499.985 1380.55 480.11 z"/>
<path transform="translate(0,0)" fill="rgb(242,242,241)" d="M 480.141 780.452 C 489.424 779.588 530.671 779.77 539.909 780.294 L 540.077 840.015 L 480.184 839.974 C 480.06 820.134 480.046 800.293 480.141 780.452 z"/>
<path transform="translate(0,0)" fill="rgb(242,242,241)" d="M 0 900.296 C 18.3081 899.833 41.6115 899.637 59.9914 900.132 L 60.0385 959.377 C 48.2995 960.479 12.2041 960.325 0 959.709 L 0 900.296 z"/>
<path transform="translate(0,0)" fill="rgb(242,242,241)" d="M 720.147 780.452 C 729.594 779.573 770.582 779.765 779.909 780.294 C 780.04 800.196 780.057 820.099 779.96 840.001 L 720.182 839.993 C 720.062 820.146 720.05 800.299 720.147 780.452 z"/>
<path transform="translate(0,0)" fill="rgb(242,242,241)" d="M 180.072 720.087 C 198.332 719.797 221.88 719.437 239.871 720.234 C 240.8 737.224 240.019 762.248 240.043 779.874 C 221.391 780.609 199.044 779.901 179.926 780.167 L 180.072 720.087 z"/>
<path transform="translate(0,0)" fill="rgb(242,242,241)" d="M 0 1140.29 C 18.4511 1139.83 41.4807 1139.65 60.0045 1140.12 L 60.0254 1199.96 C 41.5449 1199.97 18.0612 1200.68 0 1199.86 L 0 1140.29 z"/>
<path transform="translate(0,0)" fill="rgb(242,242,241)" d="M 1.42109e-14 660.29 C 20.0036 660 40.0099 659.941 60.0148 660.113 L 60.0392 719.594 C 44.9485 720.281 14.9667 720.55 0 719.708 L 0 660.29 z"/>
<path transform="translate(0,0)" fill="rgb(242,242,241)" d="M 1320.15 540.138 C 1338.57 539.516 1361.48 539.897 1379.96 540.105 L 1380.03 599.555 C 1360.32 600.732 1339.32 599.241 1319.97 600.127 C 1320.15 580.131 1320.21 560.135 1320.15 540.138 z"/>
<path transform="translate(0,0)" fill="rgb(242,242,241)" d="M 0 540.497 C 19.5006 540.345 40.579 539.752 59.9706 540.042 L 60.0031 599.261 C 50.867 600.248 9.32573 600.447 0 599.703 L 0 540.497 z"/>
<path transform="translate(0,0)" fill="rgb(242,242,241)" d="M 0 1020.5 L 59.95 1020.03 L 59.9669 1079.1 C 51.3991 1080.28 9.87142 1080.45 0 1079.7 L 0 1020.5 z"/>
<path transform="translate(0,0)" fill="rgb(242,242,241)" d="M 1380.45 600.121 C 1399.1 599.573 1420.92 600.612 1440 600.578 L 1440 659.82 C 1421.59 660.603 1398.74 660.018 1379.98 660.068 C 1380.44 640.198 1379.62 620.006 1380.45 600.121 z"/>
<path transform="translate(0,0)" fill="rgb(242,242,241)" d="M 120.18 660.065 C 139.49 659.997 160.713 659.506 179.872 660.188 L 180.027 719.555 C 160.297 720.661 139.698 719.504 120.008 720.129 C 120.181 700.108 120.238 680.086 120.18 660.065 z"/>
<path transform="translate(0,0)" fill="rgb(242,242,241)" d="M 0 780.529 C 19.5638 780.462 40.5886 779.721 59.9557 780.024 L 59.9742 839.472 C 46.5832 840.362 13.5004 840.465 0 839.7 L 0 780.529 z"/>
<path transform="translate(0,0)" fill="rgb(242,242,241)" d="M 1260.54 720.082 C 1280.36 719.922 1300.19 719.939 1320.01 720.131 L 1320.08 779.686 C 1302.8 780.684 1277.94 779.984 1259.96 780.126 C 1260.71 760.538 1260.05 739.894 1260.54 720.082 z"/>
<path transform="translate(0,0)" fill="rgb(242,242,241)" d="M 60.6553 720.102 C 79.2393 719.598 101.419 719.842 120.008 720.129 L 120.077 779.692 C 102.632 780.666 78.0554 779.984 59.9754 780.125 C 60.6005 760.236 59.9262 740.086 60.6553 720.102 z"/>
<path transform="translate(0,0)" fill="rgb(242,242,241)" d="M 1260.46 600.068 C 1280.3 599.955 1300.13 599.975 1319.97 600.127 L 1320.02 659.657 C 1304.7 660.842 1276.5 659.939 1259.99 660.178 C 1260.36 640.26 1260.27 620.025 1260.46 600.068 z"/>
<path transform="translate(0,0)" fill="rgb(242,242,241)" d="M 1020.16 1199.97 C 1040.08 1200.28 1060 1200.46 1079.92 1200.52 L 1079.93 1220 L 1020.65 1220 C 1020.45 1213.69 1020.04 1206.18 1020.16 1199.97 z"/>
<path transform="translate(0,0)" fill="rgb(242,242,241)" d="M 1380.84 1200.69 C 1390.41 1199.49 1427.13 1200.82 1440 1200.45 L 1440 1220 L 1380.45 1220 L 1380.84 1200.69 z"/>
<path transform="translate(0,0)" fill="rgb(0,0,0)" d="M 847.622 866.889 C 900.394 867.675 970.321 861.643 1011.49 901.954 C 1026.84 916.985 1031.86 938.712 1031.62 959.613 C 1031.17 999.704 1005.76 1021.16 970.903 1034.01 C 1014.95 1041.58 1049.86 1069.61 1047.24 1118.26 C 1044.97 1160.57 1014.12 1191.94 973.885 1201.39 C 945.974 1207.95 915.478 1207.16 886.692 1207.12 L 797.705 1207.07 C 780.788 1207.14 763.634 1207.4 746.722 1207.12 C 743.965 1207.07 743.822 1201.31 743.624 1199.19 C 747.342 1196.34 771.877 1198.98 780.234 1192.02 C 796.882 1178.14 792.995 1145.1 793.008 1124.99 L 793 1055.68 L 793.008 962.595 C 793.004 946.007 793.165 929.138 792.615 912.588 C 791.407 876.207 774.759 878.614 745.894 874.409 C 744.363 872.551 744.946 871.609 745.011 868.654 C 748.7 865.93 837.061 866.905 847.622 866.889 z"/>
<path transform="translate(0,0)" fill="rgb(252,252,252)" d="M 859.234 1041.43 C 919.763 1036.14 1000.79 1049.89 989.67 1132.37 C 987.126 1151.24 975.48 1163.65 960.302 1174.12 C 925.644 1195.73 879.867 1189.52 841.645 1184.45 C 841.308 1177.91 841.248 1171.26 841.31 1164.71 C 841.698 1124.01 840.439 1082.95 841.57 1042.28 C 847.466 1042.21 853.358 1041.92 859.234 1041.43 z"/>
<path transform="translate(0,0)" fill="rgb(242,242,241)" d="M 953.238 1079.44 C 955.682 1079.2 956.948 1079.36 959.412 1079.56 C 961.455 1085.32 959.341 1127.47 960.594 1138.44 L 960.738 1139.64 C 944.394 1140.3 924.406 1139.82 907.75 1139.82 C 904.751 1139.95 903.234 1140.29 900.505 1139.04 C 899.147 1125.83 900.174 1094.88 900.462 1080.28 C 916.252 1080.15 938.125 1080.74 953.238 1079.44 z"/>
<path transform="translate(0,0)" fill="rgb(252,252,252)" d="M 841.199 888.574 C 856.341 884.861 872.457 882.948 887.778 882.868 C 932.531 882.634 983.084 905.991 980.954 958.042 C 980.533 968.337 977.301 986.983 969.573 994.264 C 957.321 1014.21 924.389 1023.01 902.039 1023.15 C 881.672 1023.85 861.281 1023.05 841.032 1020.76 C 842.466 979.263 841.299 930.657 841.199 888.574 z"/>
<path transform="translate(0,0)" fill="rgb(242,242,241)" d="M 900.724 960.282 C 917.579 959.445 942.987 960.065 960.086 960.208 C 959.912 968.131 960.95 978.31 961.72 986.234 C 962.443 980.166 961.343 969.078 961.612 961.956 C 964.74 960.607 973.323 960.476 976.67 961.59 C 981.979 967.651 972.062 989.076 967.519 993.748 L 969.573 994.264 C 957.321 1014.21 924.389 1023.01 902.039 1023.15 C 899.278 1013.46 900.447 972.588 900.724 960.282 z"/>
<path transform="translate(0,0)" fill="rgb(0,0,0)" d="M 298.584 866.73 C 334.544 868.271 373.999 866.032 410.181 867.018 C 414.282 867.13 439.242 866.649 441.517 867.396 C 442.176 870.823 442.226 871.257 441.12 874.552 C 431.782 880.083 400.544 868.315 395.963 901.567 C 391.238 935.866 393.533 971.839 393.429 1006.54 C 393.242 1040.06 393.239 1073.58 393.421 1107.1 C 393.49 1124.08 392.784 1141.44 393.936 1158.35 C 395.491 1181.18 395.705 1191.66 419.469 1197.47 C 426.278 1198 436.74 1196.03 441.519 1199.81 C 442.879 1203.09 442.613 1201.68 441.937 1205.69 C 438.91 1208.99 424.407 1206.95 419.191 1206.96 L 344.536 1207.07 C 331.692 1207.07 312.376 1206.53 300.016 1207.61 L 298.534 1206.27 C 298.311 1204.7 297.91 1202.88 297.972 1201.3 C 298.264 1193.9 324.863 1200.77 335.143 1191.66 C 341.377 1186.14 343.925 1175.82 345.218 1167.94 C 347.464 1154.25 346.788 1139.73 346.781 1125.89 C 346.769 1098.59 345.8 1071.08 346.98 1043.82 C 336.254 1045.04 310.847 1044.36 298.729 1044.47 L 299.992 1044.5 L 300.032 1079.57 C 281.786 1080.88 258.748 1079.82 240.055 1080.14 C 240.151 1071.22 239.626 1051.84 240.821 1044.32 C 231.725 1044.44 206.383 1045.24 199.392 1043.21 L 188.912 1043.05 C 188.931 1050.09 188.698 1059.47 189.118 1066.33 C 188.447 1091.17 185.827 1166.16 194.926 1186.24 C 210.257 1199.41 218.762 1196.02 236.589 1198.89 C 237.302 1199.01 237.626 1205.75 237.574 1206.85 C 236.128 1207.69 210.673 1207.01 206.288 1207.01 L 132.39 1207.15 C 123.855 1207.18 101.337 1207.78 94.0845 1206.44 C 92.5768 1203.77 92.8019 1204.97 92.99 1201.96 C 98.3641 1194.36 127.491 1200.72 134.408 1188.08 C 142.625 1173.05 142.295 1147.04 141.717 1130.7 C 142.275 1120.06 141.837 1104.39 141.848 1093.29 L 141.867 1016.93 C 141.908 979.198 142.868 941.38 140.441 903.648 C 139.083 882.541 124.331 878.214 105.516 875.126 C 100.374 874.282 97.1389 877.796 93.2245 873.138 C 92.9503 870.161 92.8795 870.02 94.045 867.352 C 111.049 866.416 133.35 867.016 150.837 867.01 C 179.511 867 209.146 866.558 237.75 867.063 C 237.719 870.611 238.378 872.63 236.619 875.006 C 223.325 877.153 205.609 874.074 197.047 887.249 C 186.701 903.168 188.862 932.942 188.852 951.305 L 188.767 1024.95 C 215.204 1024.95 244.108 1025.47 270.38 1024.78 C 293.438 1025.74 323.507 1024.98 346.999 1025.02 C 346.079 998.335 347.538 970.529 346.758 943.777 C 345.381 896.545 354.245 877.301 298.812 875.594 L 298.187 875.571 C 297.921 871.644 298.069 870.558 298.584 866.73 z"/>
<path transform="translate(0,0)" fill="rgb(242,242,241)" d="M 199.392 1043.21 L 302.298 1043 C 309.643 1043 341.874 1042.57 346.98 1043.82 C 336.254 1045.04 310.847 1044.36 298.729 1044.47 L 299.992 1044.5 L 300.032 1079.57 C 281.786 1080.88 258.748 1079.82 240.055 1080.14 C 240.151 1071.22 239.626 1051.84 240.821 1044.32 C 231.725 1044.44 206.383 1045.24 199.392 1043.21 z"/>
<path transform="translate(0,0)" fill="rgb(0,0,0)" d="M 1200.21 780.376 C 1213.4 779.298 1245.07 780.124 1259.98 780.029 C 1259.7 800.218 1259.93 820.827 1259.94 841.048 L 1319.54 840.42 C 1319.48 850.902 1319.44 857.882 1318.51 868.178 C 1350.23 880.245 1358.57 898.803 1374.75 858.011 C 1378.68 858.57 1379.5 858.053 1382.33 860.224 C 1384.18 870.892 1385.03 889.167 1385.76 900.297 C 1387.06 921.239 1388.53 942.171 1390.15 963.09 C 1390.61 968.797 1391.45 970.276 1388.56 974.711 C 1381.4 976.849 1373.83 950.579 1371.17 944.475 C 1349.08 893.772 1301.91 869.126 1247.57 878.558 C 1222.49 882.782 1198.86 894.855 1184.44 916.666 C 1140.24 983.497 1131.93 1119.54 1203.35 1170.78 C 1219.83 1182.68 1239.23 1189.88 1259.48 1191.61 C 1266.08 1193.32 1277.49 1193.16 1284.46 1192.99 C 1322.76 1192.07 1346.85 1175.22 1371.68 1147.45 C 1376.54 1142.01 1386.51 1127.23 1391.67 1124.38 C 1394 1124.5 1394.68 1125.29 1396.56 1126.67 C 1397.09 1128.41 1397.66 1129.1 1396.64 1130.88 C 1379.46 1160.52 1352.97 1188.73 1321.28 1202.53 C 1282.57 1219.39 1232.08 1218.14 1193.15 1203.45 C 1155.87 1189.38 1124.74 1154.44 1109.1 1118.48 C 1096.14 1088.84 1093.41 1060.29 1094.85 1028.43 C 1095.98 1003.27 1101.54 984.158 1110.68 961.007 C 1107 959.485 1085.82 960.018 1080.47 960.044 C 1079.68 940.95 1079.99 919.281 1080.32 900.088 C 1093.8 899.832 1127.76 899.253 1139.88 900.619 C 1141 880.233 1139.95 860.597 1140.3 840.245 C 1156.49 839.433 1183.66 840.144 1200.09 840.67 C 1200.01 844.723 1199.87 861.872 1201.12 864.813 C 1201.1 857.687 1200.84 849.581 1201.55 842.56 C 1206.28 840.036 1247.86 841.384 1258.39 840.396 C 1240.44 839.505 1218.67 840.127 1200.43 840.205 C 1199.68 821.309 1200 799.403 1200.21 780.376 z"/>
<path transform="translate(0,0)" fill="rgb(242,242,241)" d="M 1200.21 780.376 C 1213.4 779.298 1245.07 780.124 1259.98 780.029 C 1259.7 800.218 1259.93 820.827 1259.94 841.048 L 1319.54 840.42 C 1319.48 850.902 1319.44 857.882 1318.51 868.178 C 1233.67 838.904 1147.5 880.458 1110.68 961.007 C 1107 959.485 1085.82 960.018 1080.47 960.044 C 1079.68 940.95 1079.99 919.281 1080.32 900.088 C 1093.8 899.832 1127.76 899.253 1139.88 900.619 C 1141 880.233 1139.95 860.597 1140.3 840.245 C 1156.49 839.433 1183.66 840.144 1200.09 840.67 C 1200.01 844.723 1199.87 861.872 1201.12 864.813 C 1201.1 857.687 1200.84 849.581 1201.55 842.56 C 1206.28 840.036 1247.86 841.384 1258.39 840.396 C 1240.44 839.505 1218.67 840.127 1200.43 840.205 C 1199.68 821.309 1200 799.403 1200.21 780.376 z"/>
<path transform="translate(0,0)" fill="rgb(0,0,0)" d="M 487.846 1098.95 C 491.219 1098.37 492.247 1097.9 495.409 1099.2 C 500.286 1103.44 501.418 1119.73 503.626 1126.37 C 519.142 1173.45 554.28 1198.29 603.994 1194.91 C 637.832 1192.61 666.456 1172.28 664.395 1135.74 C 662.575 1103.47 629.562 1087.23 605.488 1072.45 C 585.529 1060.3 565.658 1048.01 545.877 1035.58 C 531.894 1026.73 516.592 1017.26 505.597 1004.78 C 493.72 991.462 486.338 974.746 484.497 957 C 482.086 934.728 488.736 912.423 502.949 895.108 C 535.39 855.403 587.378 850.44 632.209 868.896 C 641.502 872.722 661.938 883.862 670.122 873.806 C 675.099 867.691 673.726 857.135 684.859 859.065 C 687.279 862.817 687.402 974.222 683.397 978.235 C 674.337 980.237 671.428 946.937 668.183 939.25 C 657.79 914.624 641.294 894.289 615.335 884.995 C 587.833 874.407 549.936 877.301 532.402 903.671 C 510.593 936.47 534.432 964.124 560.228 981.777 C 575.402 991.953 591.075 1001.36 607.187 1009.98 C 646.421 1030.97 698.468 1054.24 706.399 1103 C 719.336 1182.53 648.611 1223.54 578.908 1212.56 C 570.821 1211.24 562.813 1209.46 554.921 1207.25 C 544.062 1204.25 510.67 1190.96 501.987 1200.53 C 496.926 1206.11 501.986 1214.59 488.874 1215.97 C 486.693 1207.47 487.233 1167.36 487.393 1157.48 C 487.752 1137.97 487.903 1118.46 487.846 1098.95 z"/>
<path transform="translate(0,0)" fill="rgb(242,242,241)" d="M 60.2259 1080.37 C 75 1079.07 104.784 1079.97 120.66 1079.95 C 119.785 1096.97 120.78 1121.21 120.94 1138.92 C 113.528 1140.55 69.6205 1140.12 59.8913 1140.16 C 60.3222 1120.35 59.7115 1100.38 60.2259 1080.37 z"/>
<path transform="translate(0,0)" fill="rgb(242,242,241)" d="M 120.232 780.016 L 179.945 779.985 L 179.974 840.015 L 136.62 840.163 C 134.796 839.75 123.712 839.738 121.161 839.699 C 118.984 835.081 119.924 788.675 120.232 780.016 z"/>
<path transform="translate(0,0)" fill="rgb(242,242,241)" d="M 60.6237 960.08 C 80.5687 959.847 100.725 959.994 120.688 959.994 C 119.669 967.648 119.662 996.983 120.873 1004.52 L 121.036 1018.93 C 111.9 1020.58 71.5083 1020.03 59.9796 1020.05 C 60.5915 1000.24 60.0954 980.024 60.6237 960.08 z"/>
<path transform="translate(0,0)" fill="rgb(242,242,241)" d="M 1260.3 1080.27 C 1276.44 1079.15 1303.09 1079.99 1320.01 1079.99 C 1319.92 1087.79 1321.3 1136.35 1318.76 1139.65 C 1301.67 1140.55 1277.57 1139.93 1259.91 1140.03 C 1260.35 1120.2 1259.49 1100.22 1260.3 1080.27 z"/>
<path transform="translate(0,0)" fill="rgb(242,242,241)" d="M 1200.24 1019.99 C 1220.15 1019.92 1240.05 1019.94 1259.95 1020.08 L 1260 1079.33 C 1244.64 1080.84 1216.65 1080.06 1200.15 1079.99 C 1200.02 1059.99 1200.05 1039.99 1200.24 1019.99 z"/>
<path transform="translate(0,0)" fill="rgb(242,242,241)" d="M 1320.32 780.011 L 1379.94 779.991 L 1380.01 840.044 C 1360.01 839.941 1340.01 840.006 1320.01 840.237 C 1319.99 820.647 1319.59 799.468 1320.32 780.011 z"/>
<path transform="translate(0,0)" fill="rgb(242,242,241)" d="M 1260.65 960.091 C 1277.31 959.676 1303.62 959.393 1319.87 960.256 C 1320.01 979.975 1320.06 999.695 1319.99 1019.41 C 1304.32 1020.87 1276.86 1019.99 1259.95 1020.08 C 1260.34 1000.14 1259.96 980.013 1260.65 960.091 z"/>
<path transform="translate(0,0)" fill="rgb(242,242,241)" d="M 240.7 900.214 C 256.664 899.36 283.82 900.013 300.035 900.313 C 299.666 912.138 301.108 950.828 299.54 959.692 C 281.79 960.681 258.187 960.041 240.002 960.079 C 240.089 943.128 239.223 915.947 240.7 900.214 z"/>
<path transform="translate(0,0)" fill="rgb(242,242,241)" d="M 1080.21 780.051 C 1100.14 779.85 1120.07 779.878 1139.99 780.134 L 1140.03 839.631 C 1120.17 840.547 1099.32 839.266 1079.96 840.108 C 1080.4 820.505 1080.07 799.808 1080.21 780.051 z"/>
<path transform="translate(0,0)" fill="rgb(242,242,241)" d="M 1140.57 720.091 C 1160.37 719.927 1180.17 719.937 1199.98 720.122 L 1200.04 779.855 C 1180.14 780.169 1159.69 779.68 1139.99 780.134 C 1140.5 760.201 1139.72 740.192 1140.57 720.091 z"/>
<path transform="translate(0,0)" fill="rgb(242,242,241)" d="M 1320.24 1020.01 L 1379.94 1020 L 1379.94 1079.49 C 1370.2 1080.77 1332.06 1080.06 1319.91 1080.07 C 1320.39 1060.31 1319.81 1040.01 1320.24 1020.01 z"/>
<path transform="translate(0,0)" fill="rgb(242,242,241)" d="M 240.22 780.42 C 253.66 779.76 286.198 779.492 299.97 780.105 L 299.963 839.859 C 280.03 840.005 260.097 840.041 240.164 839.966 C 240.012 820.118 240.03 800.268 240.22 780.42 z"/>
<path transform="translate(0,0)" fill="rgb(242,242,241)" d="M 1200.41 660.188 C 1216.78 659.972 1244.07 659.334 1260.03 660.232 L 1260 719.751 C 1241.03 720.086 1218.36 719.288 1199.98 720.122 C 1200.06 702.462 1199.28 676.968 1200.41 660.188 z"/>
<path transform="translate(0,0)" fill="rgb(242,242,241)" d="M 240.452 1139.94 L 300.027 1140.06 C 300.133 1155.83 301.653 1183.59 296.707 1197.78 C 280.886 1200.61 254.006 1201.52 238.491 1197.61 C 240.778 1187.49 239.969 1152.93 240.452 1139.94 z"/>
<path transform="translate(0,0)" fill="rgb(242,242,241)" d="M 1020.74 839.995 C 1040.48 839.844 1060.22 839.882 1079.96 840.108 L 1080.03 899.717 C 1072.33 900.043 1023.99 901.006 1020.25 899.247 C 1019.53 881.088 1020.47 858.562 1020.74 839.995 z"/>
<path transform="translate(0,0)" fill="rgb(242,242,241)" d="M 540.945 1080.3 C 552.523 1080.19 588.951 1079.1 597.885 1081.42 C 600.831 1084.96 599.624 1130.95 599.698 1139.38 C 584.809 1140.59 556.387 1139.75 540.49 1139.79 C 540.274 1120.11 541.109 1100.25 540.945 1080.3 z"/>
<path transform="translate(0,0)" fill="rgb(252,252,252)" d="M 0 0 L 60.2254 0 L 119.969 0 L 179.971 0 L 239.982 0 L 362.778 0 L 1073.2 0 C 999.2 76.2745 920.729 152.832 845.419 228.115 L 763.555 309.962 C 750.468 323.06 731.852 342.959 718.386 354.46 L 717.604 356.633 C 614.754 460.268 511.304 563.307 407.26 665.745 C 396.7 656.229 368.545 663.603 358.141 658.209 C 356.469 651.486 358.041 641.738 356.98 633.522 L 356.839 632.493 C 355.458 653.314 356.096 684.99 356.413 705.913 C 318.072 666.696 274.635 625.858 235.16 587.255 L 91.1222 444.81 L 21.1069 376.389 C 17.7912 373.097 1.87585 357.936 0.600093 355.968 L 0 355.837 L 0 239.013 L 0 180.268 L 0 119.699 L 0 60.5366 L 0 0 z"/>
<path transform="translate(0,0)" fill="rgb(254,0,0)" d="M 362.778 0 L 1073.2 0 C 999.2 76.2745 920.729 152.832 845.419 228.115 L 763.555 309.962 C 750.468 323.06 731.852 342.959 718.386 354.46 L 461.503 99.005 C 441.006 78.3787 420.347 57.9132 399.53 37.6106 C 390.291 28.5587 369.965 9.54531 362.778 0 z"/>
<path transform="translate(0,0)" fill="rgb(254,0,0)" d="M 0.600093 355.968 C 2.91784 354.165 4.62466 352.351 6.71596 350.345 C 43.1086 315.433 78.5827 279.743 114.315 244.173 L 278.863 82.2588 C 304.97 56.5819 330.416 30.2642 356.847 4.89981 C 356.192 46.357 356.059 87.8208 356.447 129.281 C 356.065 172.271 356.061 215.263 356.433 258.253 C 356.023 306.415 356.027 354.579 356.446 402.741 L 356.249 552.513 C 356.136 571.188 356.148 589.864 356.285 608.539 C 356.324 612.849 356.23 628.846 356.839 632.493 C 355.458 653.314 356.096 684.99 356.413 705.913 C 318.072 666.696 274.635 625.858 235.16 587.255 L 91.1222 444.81 L 21.1069 376.389 C 17.7912 373.097 1.87585 357.936 0.600093 355.968 z"/>
<path transform="translate(0,0)" fill="rgb(242,242,241)" d="M 356.433 258.253 C 358.364 261.479 357.279 294.72 357.478 301.131 C 363.893 300.27 414.563 299.856 420.119 300.757 C 419.912 313.488 421.736 342.914 420.023 353.199 C 419.663 355.356 419.063 356.717 417.484 358.251 C 414.162 361.477 366.592 359.732 357.492 360.779 C 357.508 366.525 358.264 400.217 356.446 402.741 C 356.027 354.579 356.023 306.415 356.433 258.253 z"/>
<path transform="translate(0,0)" fill="rgb(242,242,241)" d="M 0 180.268 C 20.0044 180.005 40.011 179.95 60.0166 180.103 C 60.0467 197.531 60.8502 222.891 59.9188 239.858 C 50.2705 239.925 6.53754 240.842 0 239.013 L 0 180.268 z"/>
<path transform="translate(0,0)" fill="rgb(242,242,241)" d="M 179.971 0 L 239.982 0 L 240.044 59.905 C 220.85 60.0579 198.991 59.568 180.044 60.1904 L 179.971 0 z"/>
<path transform="translate(0,0)" fill="rgb(242,242,241)" d="M 0 60.5366 C 19.9945 60.0324 39.9961 59.8646 59.9963 60.0332 L 59.9893 119.107 C 50.4823 120.248 10.4692 120.502 0 119.699 L 0 60.5366 z"/>
<path transform="translate(0,0)" fill="rgb(242,242,241)" d="M 120.153 60.0883 C 139.042 59.7782 161.315 59.579 180.044 60.1904 L 180.071 119.745 C 163.686 120.799 137.23 119.894 119.873 120.159 C 120.535 101.239 119.995 79.3952 120.153 60.0883 z"/>
<path transform="translate(0,0)" fill="rgb(242,242,241)" d="M 60.2254 0 L 119.969 0 L 120.013 59.7451 C 103.479 60.8453 77.2738 60.0406 60.0131 60.0646 L 60.2254 0 z"/>
<path transform="translate(0,0)" fill="rgb(242,242,241)" d="M 60.2733 120.07 C 79.6682 119.632 100.49 120.007 120 119.996 C 120.02 138.446 120.677 161.271 119.762 179.406 C 107.434 180.889 74.2448 180.059 59.89 180.179 C 60.3559 160.266 59.6968 140.21 60.2733 120.07 z"/>
<path transform="translate(0,0)" fill="rgb(242,242,241)" d="M 420.172 480.137 C 438.032 479.301 461.683 480.016 479.991 480.018 C 479.932 488.288 481.223 535.354 478.77 539.458 C 471.898 540.485 429.488 540.022 419.907 540.064 C 420.277 520.288 419.869 500.073 420.172 480.137 z"/>
<path transform="translate(0,0)" fill="rgb(242,242,241)" d="M 420.018 240.165 C 438.664 239.9 461.428 239.521 480.008 240.058 C 479.964 249.381 482.147 291.955 477.981 297.732 C 472.626 301.9 429.903 299.988 420.449 300.119 L 419.877 295.963 C 420.064 277.364 420.111 258.764 420.018 240.165 z"/>
<path transform="translate(0,0)" fill="rgb(242,242,241)" d="M 480.47 300.225 C 497.151 299.387 522.417 300.097 539.999 299.968 C 540.032 319.338 540.429 340.147 539.791 359.401 C 530.649 360.752 490.337 360.083 479.985 360.091 C 480.11 341.356 479.36 318.366 480.47 300.225 z"/>
<path transform="translate(0,0)" fill="rgb(242,242,241)" d="M 480.298 419.937 L 539.996 419.996 C 540.004 438.688 540.632 461.025 539.76 479.391 C 529.755 480.803 491.643 480.073 479.988 480.093 C 480.406 460.208 479.892 440.014 480.298 419.937 z"/>
<path transform="translate(0,0)" fill="rgb(242,242,241)" d="M 540.29 360.276 C 556.8 359.171 582.787 359.99 600 359.987 L 600.027 419.622 C 586.812 420.902 554.518 420.065 539.908 420.135 C 540.351 400.277 539.504 380.265 540.29 360.276 z"/>
<path transform="translate(0,0)" fill="rgb(242,242,241)" d="M 420.514 360.156 C 437.636 359.431 462.066 360.202 479.993 360.116 C 479.901 368.073 481.262 415.719 478.778 419.282 C 460.689 420.245 438.37 419.898 419.962 420.076 C 420.846 400.446 419.382 379.755 420.514 360.156 z"/>
<path transform="translate(0,0)" fill="rgb(254,0,0)" d="M 717.604 356.633 C 783.672 419.924 850.822 489.441 915.979 554.542 L 1024.09 662.506 C 1040.1 678.475 1058.91 696.14 1074.26 712.262 C 1045.25 709.729 1003.52 711.524 973.421 711.375 L 749.446 711.403 L 505.743 711.38 C 462.646 711.272 404.128 709.744 361.399 712.069 C 370.794 702.657 400.595 674.086 407.26 665.745 C 511.304 563.307 614.754 460.268 717.604 356.633 z"/>
<path transform="translate(0,0)" fill="rgb(252,252,252)" d="M 1260.18 0 L 1319.99 0 L 1379.97 0 L 1440 0 L 1440 59.9364 L 1440 120.068 L 1440 179.318 C 1430.78 180.645 1391.29 179.943 1380.06 179.957 C 1364.26 178.883 1336.44 179.827 1319.9 179.902 C 1319.87 195.08 1320.21 212.541 1319.54 227.53 C 1318.57 223.203 1318.99 187.732 1319 181 C 1304.79 181.073 1290.58 180.99 1276.37 180.752 C 1286.47 179.79 1309.2 180.224 1320.22 180.107 C 1320.31 160.065 1320.25 140.022 1320.05 119.981 C 1304.88 119 1275.36 119.723 1259.87 120.011 C 1259.58 135.229 1259.54 150.451 1259.76 165.67 C 1257.81 160.101 1258.97 129.433 1259 121 C 1251.41 121.005 1221.69 121.444 1215.77 120.58 C 1229.54 119.584 1245.66 120.544 1260.19 119.806 C 1260.25 99.8654 1260.21 79.9243 1260.07 59.9838 C 1260.31 39.9901 1260.35 19.9945 1260.18 1.06581e-14 z"/>
<path transform="translate(0,0)" fill="rgb(242,242,241)" d="M 1379.97 0 L 1440 0 L 1440 59.9364 C 1420.69 60.4622 1399.54 60.0361 1379.99 60.1532 C 1380.41 40.6434 1379.99 19.6306 1379.97 0 z"/>
<path transform="translate(0,0)" fill="rgb(242,242,241)" d="M 1320.22 59.9821 C 1339.09 59.9868 1361.37 59.3898 1379.94 60.0426 C 1379.92 76.4228 1380.95 104.797 1379.91 119.761 C 1359.96 120.001 1340 120.074 1320.05 119.981 C 1319.91 99.981 1319.96 79.9805 1320.22 59.9821 z"/>
<path transform="translate(0,0)" fill="rgb(242,242,241)" d="M 1380.28 120.163 C 1397.64 119.255 1422.1 120.049 1440 120.068 L 1440 179.318 C 1430.78 180.645 1391.29 179.943 1380.06 179.957 C 1380.01 160.025 1380.08 140.093 1380.28 120.163 z"/>
<path transform="translate(0,0)" fill="rgb(242,242,241)" d="M 1260.18 0 L 1319.99 0 C 1320.01 8.5178 1320.93 53.3753 1318.59 58.0868 C 1312.05 60.8486 1270.05 59.9775 1260.07 59.9838 C 1260.31 39.9901 1260.35 19.9945 1260.18 1.06581e-14 z"/>
<path transform="translate(0,0)" fill="rgb(252,252,252)" d="M 1380.06 179.957 C 1391.29 179.943 1430.78 180.645 1440 179.318 L 1440 239.841 L 1379.93 239.853 C 1379.88 248.137 1380.29 276.06 1379.3 282.868 C 1378.5 271.626 1379.01 252.8 1379 241 C 1364.35 241.053 1348.83 241.375 1334.26 240.698 C 1337.33 240.083 1373.9 240.114 1380.21 239.977 L 1380.06 179.957 z"/>
<path transform="translate(0,0)" fill="rgb(252,252,252)" d="M 1200.19 0 L 1260.18 0 C 1260.35 19.9945 1260.31 39.9901 1260.07 59.9838 C 1244.96 58.9639 1215.84 59.9152 1199.97 59.9936 C 1199.91 75.9352 1200.31 94.7519 1198.57 110.305 C 1198.03 106.396 1199.01 68.0162 1199 61 L 1151.47 60.8436 C 1162.38 59.4241 1187.59 60.2475 1200.22 59.9733 L 1200.19 0 z"/>
<path transform="translate(0,0)" fill="rgb(254,0,0)" d="M 1084.05 7.41158 C 1089.38 9.8466 1129.99 51.4591 1138.25 59.5982 L 1337.28 257.192 L 1401.44 321.479 C 1411.86 331.918 1428.26 349.235 1439.31 358.218 C 1379.54 416.53 1320.27 475.346 1261.5 534.659 C 1255.55 540.705 1249.47 546.796 1243.33 552.65 C 1188.94 604.544 1137.09 659.428 1082.95 711.489 C 1084.68 676.449 1083.86 634.436 1083.68 599.088 L 1083.56 465.416 L 1084.05 7.41158 z"/>
<path transform="translate(0,0)" fill="rgb(252,252,252)" d="M 1020.21 119.207 C 1020.15 100.963 1019.78 81.6924 1020.24 63.5307 C 1021.82 76.4692 1021.03 104.864 1021 119 C 1037.39 118.936 1060.61 118.209 1076.42 119.476 C 1058.77 120.287 1037.88 119.791 1019.99 119.789 C 1019.51 139.5 1019.87 160.473 1019.88 180.277 C 1038.55 180.242 1057.82 179.976 1076.44 180.404 C 1061.71 181.886 1036.55 181.076 1021 181 L 1021 239 C 1035.59 239.011 1063.74 238.168 1077.24 239.335 C 1060.29 240.549 1037.68 239.886 1020.28 239.825 L 1019.77 300.395 C 1027.56 300.298 1073.98 299.51 1076.85 300.557 C 1060.33 301.747 1037.97 301.071 1021 301 L 1021 359 C 1035.46 358.946 1061.98 358.137 1075.44 359.577 C 1057.33 359.885 1037.53 359.306 1019.87 359.967 C 1019.84 379.811 1019.51 400.419 1019.81 420.195 C 1020.06 437.223 1020.66 463.087 1019.9 479.732 C 999.962 479.994 980.02 480.084 960.077 480 C 944.222 478.887 916.935 479.812 900.231 479.842 L 900.047 419.969 C 884.834 418.845 856.144 419.822 839.916 419.846 C 839.893 434.248 840.186 449.991 839.327 464.271 C 838.051 458.804 839.013 428.491 839 421 C 828.253 421.028 804.97 421.529 794.923 420.438 C 810.017 420.387 825.112 420.23 840.204 419.966 C 840.292 399.976 840.25 379.985 840.079 359.996 C 827.059 358.924 793.73 359.832 779.879 359.957 C 779.69 375.528 780.32 392.356 779.404 407.727 C 778.221 403.695 779.006 367.721 779 361 C 767.513 361.001 752.819 361.395 741.606 360.519 C 747.096 359.284 772.944 360.034 780.16 359.865 C 780.183 351.084 778.177 306.985 781.212 301.852 C 785.973 297.737 797.852 299.98 804.133 300.107 C 816.171 300.265 828.211 300.202 840.247 299.919 C 840.211 282.488 839.886 264.981 839.38 247.556 C 839.325 245.647 840.414 243.375 841.522 241.818 C 846.366 237.983 858.014 240.006 864.281 240.113 C 876.259 240.305 888.241 240.241 900.217 239.919 C 900.2 222.488 899.892 204.998 899.358 187.575 C 899.3 185.662 900.437 183.343 901.537 181.777 C 906.659 177.854 918.87 179.925 925.553 180.079 C 937.111 180.289 948.672 180.286 960.231 180.07 C 960.229 171.238 958.534 126.711 961.346 121.822 C 966.144 117.621 975.213 119.871 981.482 119.749 C 994.337 119.499 1007.37 120.154 1020.21 119.207 z"/>
<path transform="translate(0,0)" fill="rgb(252,252,252)" d="M 1020.21 119.207 C 1020.15 100.963 1019.78 81.6924 1020.24 63.5307 C 1021.82 76.4692 1021.03 104.864 1021 119 C 1037.39 118.936 1060.61 118.209 1076.42 119.476 C 1058.77 120.287 1037.88 119.791 1019.99 119.789 C 1019.51 139.5 1019.87 160.473 1019.88 180.277 C 1020.07 197.269 1020.76 223.058 1019.99 239.753 C 1000.45 240.012 979.254 239.536 959.964 240.123 C 959.96 250.019 962.3 290.957 958.151 297.471 C 953.184 301.782 939.286 300.082 932.573 299.989 C 921.683 299.858 910.792 299.897 899.904 300.105 L 900.04 359.629 C 881.158 360.496 859.189 359.993 840.079 359.996 C 827.059 358.924 793.73 359.832 779.879 359.957 C 779.69 375.528 780.32 392.356 779.404 407.727 C 778.221 403.695 779.006 367.721 779 361 C 767.513 361.001 752.819 361.395 741.606 360.519 C 747.096 359.284 772.944 360.034 780.16 359.865 C 780.183 351.084 778.177 306.985 781.212 301.852 C 785.973 297.737 797.852 299.98 804.133 300.107 C 816.171 300.265 828.211 300.202 840.247 299.919 C 840.211 282.488 839.886 264.981 839.38 247.556 C 839.325 245.647 840.414 243.375 841.522 241.818 C 846.366 237.983 858.014 240.006 864.281 240.113 C 876.259 240.305 888.241 240.241 900.217 239.919 C 900.2 222.488 899.892 204.998 899.358 187.575 C 899.3 185.662 900.437 183.343 901.537 181.777 C 906.659 177.854 918.87 179.925 925.553 180.079 C 937.111 180.289 948.672 180.286 960.231 180.07 C 960.229 171.238 958.534 126.711 961.346 121.822 C 966.144 117.621 975.213 119.871 981.482 119.749 C 994.337 119.499 1007.37 120.154 1020.21 119.207 z"/>
<path transform="translate(0,0)" fill="rgb(242,242,241)" d="M 960.229 179.988 C 979.482 179.942 1000.8 179.474 1019.88 180.277 C 1020.07 197.269 1020.76 223.058 1019.99 239.753 C 1000.45 240.012 979.254 239.536 959.964 240.123 C 960.55 220.905 960.085 199.495 960.229 179.988 z"/>
<path transform="translate(0,0)" fill="rgb(242,242,241)" d="M 900.096 240.109 C 919.208 239.686 940.88 239.833 959.964 240.123 C 959.96 250.019 962.3 290.957 958.151 297.471 C 953.184 301.782 939.286 300.082 932.573 299.989 C 921.683 299.858 910.792 299.897 899.904 300.105 L 900.096 240.109 z"/>
<path transform="translate(0,0)" fill="rgb(242,242,241)" d="M 840.18 300.037 C 860.088 299.955 879.996 299.978 899.904 300.105 L 900.04 359.629 C 881.158 360.496 859.189 359.993 840.079 359.996 L 840.18 300.037 z"/>
<path transform="translate(0,0)" fill="rgb(242,242,241)" d="M 960.257 419.937 C 979.668 419.913 1000.51 419.531 1019.81 420.195 C 1020.06 437.223 1020.66 463.087 1019.9 479.732 C 999.962 479.994 980.02 480.084 960.077 480 C 959.969 459.979 960.029 439.957 960.257 419.937 z"/>
<path transform="translate(0,0)" fill="rgb(242,242,241)" d="M 900.309 360.204 C 910.74 360.121 951.349 359.364 959.991 360.388 L 960.03 418.971 C 943.1 420.428 917.581 420.031 900.047 419.969 C 900.071 400.728 899.661 379.242 900.309 360.204 z"/>
<path transform="translate(0,0)" fill="rgb(242,242,241)" d="M 960.451 300.228 C 979.796 299.732 1000.41 300.244 1019.98 300.1 C 1019.45 319.47 1020.16 339.407 1019.79 359.049 C 1008.93 360.765 972.045 360.085 959.966 360.094 C 960.148 341.046 959.396 318.757 960.451 300.228 z"/>
<path transform="translate(0,0)" fill="rgb(252,252,252)" d="M 1019.81 420.195 C 1035.05 420.141 1062.21 419.298 1076.47 420.729 C 1057.98 421.048 1039.49 421.138 1021 421 L 1021 479 C 1035.25 479.011 1063.07 478.182 1076.24 479.337 C 1059.53 480.553 1037.17 479.899 1020.02 479.837 C 1019.98 497.644 1019.1 522.968 1019.99 540.135 C 1009.64 538.986 971.877 539.917 959.899 540.047 C 959.869 556.375 960.039 573.32 959.496 589.582 C 958.276 577.811 958.97 553.696 959 541 C 944.799 541.031 930.035 541.291 915.895 540.556 C 930.665 540.274 945.437 540.113 960.209 540.073 C 960.284 520.049 960.24 500.024 960.077 480 C 980.02 480.084 999.962 479.994 1019.9 479.732 C 1020.66 463.087 1020.06 437.223 1019.81 420.195 z"/>
<path transform="translate(0,0)" fill="rgb(252,252,252)" d="M 1019.99 540.135 C 1037.53 540.218 1066.11 539.307 1082.51 540.689 C 1082.54 549.731 1085.29 591.747 1079.7 597.358 C 1074.52 602.56 1030.21 599.617 1019.83 599.982 L 1019.76 627.25 C 1019.74 628.979 1019.67 639.317 1019.4 640.271 C 1018.6 634.556 1019 608.134 1019 601 C 1013.27 600.995 976.381 601.245 973.24 600.55 C 986.77 599.572 1005.81 600.289 1020.14 600.003 C 1020.15 580.72 1020.64 559.242 1019.99 540.135 z"/>
</svg>