<svg version="1.1" xmlns="http://www.w3.org/2000/svg" style="display: block;" viewBox="0 0 2048 2048" width="512" height="512" preserveAspectRatio="none">
<path transform="translate(0,0)" fill="rgb(0,168,88)" d="M 0 0 L 2048 0 L 2048 2048 L 0 2048 L 0 0 z"/>
<path transform="translate(0,0)" fill="rgb(254,254,254)" d="M 1124.72 460.67 C 1127.09 462.854 1126.72 469.458 1126.75 472.704 C 1127.03 506.184 1126.92 539.674 1126.92 573.157 L 1126.92 756.757 L 1127.05 1382.52 L 985.539 1524.42 C 964.276 1545.79 941.792 1569.55 920.206 1590.11 C 918.744 1586.9 919.523 1434.39 919.524 1418.16 L 919.529 931.073 C 919.527 844.803 920.955 753.594 919.082 667.667 C 986.635 598.415 1057.81 530.352 1124.72 460.67 z"/>
<path transform="translate(0,0)" fill="rgb(254,254,254)" d="M 716.784 460.597 C 719.186 462.434 718.814 465.11 718.822 467.991 C 718.913 500.359 718.894 532.73 718.9 565.098 L 718.891 758.256 L 719.032 1382.6 L 575.364 1526.51 L 535.277 1567.07 C 528.568 1573.89 518.357 1584.96 511.171 1590.67 L 511.247 1577.25 L 511.524 1075.46 C 511.522 940.746 513.133 802.208 511.132 667.747 C 528.814 648.639 550.426 628.533 568.897 609.643 C 617.648 559.785 668.538 510.881 716.784 460.597 z"/>
<path transform="translate(0,0)" fill="rgb(254,254,254)" d="M 1535.73 459.841 C 1537.69 464.255 1536.68 668.138 1536.67 687.108 L 1536.89 1383.48 C 1517.2 1402.16 1495.57 1425.11 1476.33 1444.67 L 1335.08 1589.35 C 1332.62 1586.67 1333.58 1500.53 1333.58 1488.25 L 1333.56 1303.15 L 1333.43 667.034 C 1341.74 657.302 1353.84 645.623 1362.97 636.376 L 1410.68 588.062 L 1535.73 459.841 z"/>
</svg>