<svg version="1.1" xmlns="http://www.w3.org/2000/svg" style="display: block;" viewBox="0 0 2048 679" width="772" height="256" preserveAspectRatio="none">
<path transform="translate(0,0)" fill="rgb(255,255,255)" d="M 0 0 L 2048 0 L 2048 679 L 0 679 L 0 0 z"/>
<path transform="translate(0,0)" fill="rgb(0,85,128)" d="M 1251.74 114.203 C 1262.17 115.409 1280.92 115.069 1291.97 115.187 L 1291.89 442.892 C 1278.66 443.178 1264.73 442.962 1251.45 442.969 L 1251.23 409.91 C 1230.16 434.032 1210.37 445.457 1177.38 446.2 C 1154.1 446.725 1140.13 442.932 1119.46 432.327 C 1026.31 374.777 1063.84 219.624 1179.89 226.998 C 1215.09 229.234 1228.1 237.781 1251.19 263.115 C 1251.93 213.599 1251.18 163.805 1251.74 114.203 z"/>
<path transform="translate(0,0)" fill="rgb(255,255,255)" d="M 1177.96 264.585 C 1217.87 264.216 1250.61 296.093 1251.31 335.997 C 1252 375.9 1220.4 408.903 1180.5 409.928 C 1140.14 410.965 1106.66 378.907 1105.96 338.537 C 1105.25 298.167 1137.58 264.96 1177.96 264.585 z"/>
<path transform="translate(0,0)" fill="rgb(0,85,128)" d="M 188.904 129.659 C 190.344 131.618 195.241 142.309 196.709 145.322 L 215.353 183.821 L 263.683 284.157 C 276.404 310.344 287.953 335.896 303.901 360.343 C 314.548 337.224 328.047 315.025 337.329 291.192 C 351.569 254.627 369.533 219.522 386.679 184.246 C 395.388 166.328 403.792 147.495 413.126 129.982 L 451.531 129.854 C 453.452 159.063 460.503 204.279 464.21 233.843 L 490.421 442.908 C 476.705 443.162 462.26 442.974 448.488 442.986 C 446.857 416.518 442.46 385.207 439.111 358.675 L 422.876 228.004 C 422.576 222.761 420.722 211.481 419.971 205.853 C 394.816 253.76 372.72 303.409 347.068 351.143 C 337.461 369.022 332.743 390.368 320.881 408.221 C 308.962 408.713 297.029 408.794 285.104 408.463 C 276.043 392.493 268.271 373.022 259.501 356.889 C 243.681 327.786 229.78 298.445 215.061 268.861 C 205.107 248.854 193.7 223.13 181.698 205.127 C 180.764 226.644 176.571 254.716 174.031 276.496 C 167.546 332.111 159.637 387.216 154.021 442.979 L 113.841 442.938 C 114.538 421.098 121.138 376.676 124.104 353.849 C 130.583 303.956 136.762 254.024 142.641 204.057 C 145.442 180.534 149.758 153.075 151.249 129.956 L 188.904 129.659 z"/>
<path transform="translate(0,0)" fill="rgb(0,85,128)" d="M 1538.8 227.371 C 1547.44 226.594 1556.15 226.656 1564.78 227.558 C 1593.64 230.785 1610.34 241.501 1627.94 263.585 C 1628 252.818 1628.19 242.053 1628.53 231.291 L 1667.94 231.845 C 1666.18 300.43 1667.29 373.974 1667.49 442.887 L 1628.26 442.977 C 1628.32 431.998 1628.22 421.019 1627.95 410.044 C 1623.96 415.25 1619.93 419.282 1615.39 423.962 C 1593.91 441.935 1570.15 447.828 1542.62 445.904 C 1415.82 437.043 1408.87 243.074 1538.8 227.371 z"/>
<path transform="translate(0,0)" fill="rgb(255,255,255)" d="M 1555.11 264.524 C 1595.12 264.619 1627.54 297.027 1627.65 337.041 C 1627.76 377.056 1595.51 409.638 1555.5 409.949 C 1515.2 410.263 1482.33 377.737 1482.22 337.434 C 1482.11 297.131 1514.8 264.428 1555.11 264.524 z"/>
<path transform="translate(0,0)" fill="rgb(0,85,128)" d="M 639.697 227.418 C 645.074 227.098 650.466 227.156 655.835 227.593 C 680.531 229.569 706.089 243.6 722.075 262.393 C 743.434 287.504 749.657 320.627 747.032 352.675 C 691.338 354.507 630.144 352.663 573.717 353.135 C 585.082 396.246 608.406 411.317 653.774 409.402 C 679.294 408.324 689.584 396.36 705.368 378.194 C 716.984 381.966 728.404 386.319 739.584 391.235 C 735.966 397.168 731.79 403.354 727.286 408.671 C 709.504 429.813 684.08 443.06 656.564 445.522 C 647.148 446.282 635.699 446.561 626.385 445.356 C 573.966 438.842 535.22 395.831 533.081 342.995 C 530.297 274.215 573.749 232.111 639.697 227.418 z"/>
<path transform="translate(0,0)" fill="rgb(255,255,255)" d="M 630.827 265.334 C 674.876 260.772 698.266 278.915 707.802 321.713 C 690.008 322.187 671.366 321.963 653.5 321.985 L 574.965 322.186 C 580.556 289.19 597.29 270.592 630.827 265.334 z"/>
<path transform="translate(0,0)" fill="rgb(0,85,128)" d="M 1826.6 228.35 C 1848.16 225.425 1879.92 233.837 1895.22 249.507 C 1925.37 280.411 1920.75 323.884 1920.73 363.638 L 1920.83 442.874 C 1907.66 442.997 1894.48 443.011 1881.3 442.915 C 1880.87 412.38 1885.09 320.652 1876.4 298.176 C 1871.78 285.853 1862.37 275.923 1850.31 270.641 C 1833.06 263.17 1813.98 266.379 1797.07 272.995 C 1790.62 276.232 1784.73 280.464 1779.6 285.534 C 1758.51 306.741 1762.94 340.953 1763 368.884 L 1763.28 442.92 C 1750.19 443.134 1736.63 442.956 1723.5 442.959 L 1723.82 231.794 L 1763.4 231.886 L 1762.94 262.692 C 1780.41 240.835 1798.81 231.937 1826.6 228.35 z"/>
<path transform="translate(0,0)" fill="rgb(254,191,20)" d="M 47.0949 448.55 C 50.5439 449.731 68.0277 468.842 74.2895 473.832 C 122.769 512.232 180.562 537.095 241.78 545.887 C 333.734 559.481 424.932 542.473 504.731 492.101 C 527.829 477.52 539.976 461.405 559.398 446.979 C 555.19 453.901 549.556 461.662 544.865 468.425 C 514.083 511.986 471.237 543.74 420.911 561.356 C 303.107 602.593 146.774 582.655 66.6755 478.94 C 59.2696 469.35 51.3099 460.128 47.0949 448.55 z"/>
<path transform="translate(0,0)" fill="rgb(0,85,128)" d="M 892.597 228.275 C 909.505 227.264 919.325 229.499 935.386 234.116 C 934.633 244.55 931.306 261.177 929.476 271.922 C 916.66 267.114 895.874 263.662 883.028 267.943 C 836.076 283.588 838.106 350.915 838.122 388.961 L 838.16 442.992 L 800.75 443.041 L 798.646 442.56 C 797.103 439.529 797.998 251.315 798.038 231.544 C 809.81 232.294 826.051 231.82 838.147 231.822 C 838.097 249.673 838.114 262.628 840.61 280.415 C 846.017 249.769 861.993 233.217 892.597 228.275 z"/>
<path transform="translate(0,0)" fill="rgb(0,85,128)" d="M 977.822 231.569 C 990.032 232.201 1004.33 231.818 1016.69 231.767 C 1015.7 301.832 1016.46 372.615 1016.25 442.771 C 1003.75 443.259 990.275 442.986 977.695 442.951 L 977.822 231.569 z"/>
<path transform="translate(0,0)" fill="rgb(0,85,128)" d="M 1353.84 231.758 L 1390.38 231.914 L 1390.22 442.957 L 1353.81 442.95 L 1353.84 231.758 z"/>
<path transform="translate(0,0)" fill="rgb(0,85,128)" d="M 990.1 127.179 C 1031 123.452 1037.09 168.426 1004.25 178.386 C 990.364 180.1 977.201 176.837 971.224 162.787 C 968.621 156.666 968.603 149.753 971.175 143.618 C 975.024 134.378 981.451 130.786 990.1 127.179 z"/>
<path transform="translate(0,0)" fill="rgb(0,85,128)" d="M 1365.75 127.423 C 1379.93 123.695 1394.43 132.213 1398.08 146.412 C 1401.73 160.61 1393.13 175.067 1378.91 178.637 C 1364.8 182.179 1350.49 173.662 1346.87 159.575 C 1343.24 145.489 1351.68 131.123 1365.75 127.423 z"/>
<path transform="translate(0,0)" fill="rgb(0,85,128)" d="M 1978.88 203.912 C 1983.95 197.123 1990.5 182.965 1994.82 178.367 L 1996.1 178.665 C 1999.11 184.496 2001.2 204.551 2000.58 211.367 C 1999.15 212.394 1998.96 211.962 1996.79 211.691 C 1994.69 209.425 1994.05 198.985 1993.61 195.251 L 1992.71 192.021 L 1990.88 192.364 C 1988.36 194.979 1982.37 206.13 1979.36 210.631 C 1974.39 202.697 1971.26 194.558 1968.34 185.748 C 1966.73 193.298 1966.22 206.022 1964.34 211.41 C 1961.62 212.086 1962.62 212.256 1960.5 211.007 C 1957.9 204.748 1962.92 184.11 1964.88 177.176 C 1971.85 180.441 1976.74 196.823 1978.88 203.912 z"/>
<path transform="translate(0,0)" fill="rgb(152,185,213)" d="M 1939.83 213.368 C 1937.66 205.186 1939.9 195.359 1938.52 186.017 C 1934.75 182.888 1931.95 188.775 1928.1 181.59 C 1928.42 178.366 1927.99 179.536 1930.11 176.874 C 1933.51 174.677 1939.08 175.619 1943.37 175.892 C 1947.3 175.715 1951.59 174.95 1954.56 177.294 C 1956.25 180.431 1956.41 181.735 1953.97 184.663 C 1951.33 184.91 1948.68 185.075 1946.03 185.157 C 1943.54 188.798 1945.4 203.423 1944.15 210.249 L 1942.93 212.732 L 1939.83 213.368 z"/>
<path transform="translate(0,0)" fill="rgb(152,185,213)" d="M 1943.37 175.892 C 1947.3 175.715 1951.59 174.95 1954.56 177.294 C 1956.25 180.431 1956.41 181.735 1953.97 184.663 C 1951.33 184.91 1948.68 185.075 1946.03 185.157 C 1943.54 188.798 1945.4 203.423 1944.15 210.249 C 1943.42 202.716 1944.93 189.08 1943.48 181.33 C 1942.49 180.275 1941.65 179.38 1940.96 178.645 C 1941.38 177.657 1942.54 176.709 1943.37 175.892 z"/>
<path transform="translate(0,0)" fill="rgb(0,85,128)" d="M 1940.96 178.645 C 1941.65 179.38 1942.49 180.275 1943.48 181.33 C 1944.93 189.08 1943.42 202.716 1944.15 210.249 L 1942.93 212.732 L 1939.83 213.368 C 1939.7 205.497 1938.97 185.543 1940.96 178.645 z"/>
</svg>