<svg version="1.1" xmlns="http://www.w3.org/2000/svg" style="display: block;" viewBox="0 0 1668 1668" width="417" height="417" preserveAspectRatio="none">
<path transform="translate(0,0)" fill="rgb(255,255,255)" d="M 0 0 L 1668 0 L 1668 1668 L 0 1668 L 0 0 z"/>
<path transform="translate(0,0)" fill="rgb(229,29,31)" d="M 756.745 432.332 C 765.729 431.672 773.797 431.173 781.588 436.843 C 793.951 445.84 806.14 464.984 815.419 477.669 L 880.468 566.298 C 891.214 580.973 901.541 596.307 912.967 610.402 C 919.549 618.522 928.807 625.832 939.694 624.987 C 959.877 623.421 978.582 617.025 997.997 611.883 L 1080.12 589.859 C 1156.01 568.726 1232.15 548.532 1308.53 529.283 L 1308.83 1165.59 L 1071.89 1228.4 C 1033.62 1238.5 990.568 1251.59 951.834 1259.68 C 933.523 1262.92 923.693 1260.02 911.564 1244.99 C 900.443 1231.21 890.31 1216.3 879.865 1201.97 L 818.961 1118.26 C 807.711 1102.65 795.377 1082.09 779.278 1071.36 C 773.071 1067.22 766.484 1067.33 759.345 1068.64 C 718.63 1076.13 678.569 1088.62 638.565 1099.23 L 396.008 1163.53 L 395.88 527.122 C 480.089 504.081 564.438 481.558 648.923 459.553 C 678.687 451.889 727.342 436.116 756.745 432.332 z"/>
</svg>