<svg version="1.1" xmlns="http://www.w3.org/2000/svg" style="display: block;" viewBox="0 0 1024 1024" width="256" height="256" preserveAspectRatio="none">
<path transform="translate(0,0)" fill="rgb(239,28,36)" d="M 0 0 L 1024 0 L 1024 1024 L 0 1024 L 0 0 z"/>
<path transform="translate(0,0)" fill="rgb(254,254,254)" d="M 705.678 215.374 C 716.75 213.884 731.395 214.705 740.475 221.867 C 751.825 230.819 761.971 257.669 751.564 270.09 C 749.565 272.522 746.647 274.016 743.504 274.216 C 733.197 274.894 721.38 263.175 713.86 256.656 C 693.429 258.896 688.918 263.872 671.658 272.545 C 651.116 282.867 637.909 289.904 620.45 305.526 C 637.623 379.384 608.694 444.035 552.503 490.081 C 541.974 498.709 541.403 505.972 526.104 510.261 C 525.783 543.818 536.897 580.248 566.582 599.267 C 591.457 615.204 631.828 613.175 659.039 605.112 C 683.678 597.811 710.024 582.977 734.349 573.458 C 741.56 570.639 752.274 562.712 759.466 558.778 C 779.503 547.819 798.868 536.104 817.47 522.833 C 825.852 516.874 836.325 512.111 844.973 506.185 C 864.795 492.646 882.287 474.687 906.026 468.116 C 914.149 465.395 933.169 471.498 934.783 480.813 C 938.251 500.835 909.749 516.129 896.243 526.004 C 844.704 563.901 788.922 595.658 730.025 620.63 C 716.785 626.292 704.475 633.476 690.554 637.54 C 587.963 667.493 502.822 661.104 484.776 540.154 C 469.25 548.355 454.33 552.227 440.931 562.942 C 444.82 572.499 451.717 582.643 457.366 591.449 C 475.444 617.456 478.469 630.095 490.791 657.144 C 513.035 705.974 514.312 751.935 514.851 804.732 C 515.065 825.732 514.516 850.223 500.805 868.091 C 489.357 870.796 483.076 871.741 471.969 865.002 C 450.636 852.058 435.622 824.823 424.185 803.404 C 414.524 785.313 410.257 759.87 404.613 740.244 C 398.744 719.834 393.713 698.736 391.236 677.686 C 389.652 663.263 388.468 648.799 387.687 634.311 C 387.383 628.956 386.55 608.858 385.212 604.442 C 380.126 587.654 370.762 589.667 365.615 569.538 C 367.844 558.405 370.256 555.67 377.674 547.472 C 362.366 530.393 345.699 516.121 327.017 503.024 C 320.776 498.656 314.418 491.493 308.029 487.628 C 282.79 472.358 260.081 454.079 233.754 440.533 C 225.397 436.234 216.812 429.016 208.508 424.953 C 187.551 414.698 168.612 402.893 149.726 389.287 C 143.114 384.483 131.06 378.557 125.464 373.097 C 114.185 362.094 100.874 346.268 94.5552 331.752 C 92.5937 326.597 92.477 317.79 95.4349 313.165 C 110.516 287.7 135.056 285.179 159.238 275.421 C 205.226 256.865 252.168 247.315 300.826 238.619 C 317.37 235.662 336.583 228.554 353.011 226.524 C 412.025 219.233 475.314 212.422 533.774 225.963 C 557.696 231.585 580.651 252.016 601.312 262.749 C 614.581 252.326 619.735 250.475 633.406 242.633 C 660.91 226.855 673.396 219.58 705.678 215.374 z"/>
<path transform="translate(0,0)" fill="rgb(239,28,36)" d="M 452.804 260.443 C 502.883 257.732 526.461 265.565 566.808 292.666 C 528.459 328.616 501.871 377.457 487.226 427.842 C 482.755 443.224 481.649 466.042 480.854 482.391 C 466.116 493.344 442.71 511.424 425.423 515.215 C 415.349 483.71 412.837 478.374 377.915 486.853 C 371.431 481.934 364.167 478.213 357.415 472.755 C 349.855 466.644 343.571 460.361 335.733 454.695 C 318.256 445.985 303.329 432.123 286.771 422.435 C 269.022 413.783 254.108 400.813 237.777 390.774 C 217.371 378.229 196.952 367.523 178.096 352.095 C 170.738 346.075 149.643 336.997 161.169 323.942 C 169.175 314.874 190.336 311.912 201.378 307.573 C 255.236 283.911 312.701 279.543 369.907 269.508 C 399.675 264 422.645 261.931 452.804 260.443 z"/>
<path transform="translate(0,0)" fill="rgb(239,28,36)" d="M 428.772 623.603 C 440.128 630.861 466.045 691.72 470.258 706.789 C 475.924 727.059 480.48 773.267 476.592 793.193 C 461.885 789.958 453.208 771.926 451.283 758.749 C 447.265 731.242 423.815 647.164 428.772 623.603 z"/>
<path transform="translate(0,0)" fill="rgb(239,28,36)" d="M 585.491 337.77 C 586.563 342.255 581.336 365.954 580.105 370.738 C 576.506 384.73 569.554 401.405 560.471 412.774 C 551.769 423.668 542.756 439.563 530.791 446.464 C 529.615 442.397 535.008 427.775 536.572 422.513 C 545.953 390.943 560.473 360.029 585.491 337.77 z"/>
<path transform="translate(0,0)" fill="rgb(254,205,219)" d="M 860.939 631.837 C 874.948 630.382 887.499 640.52 889.025 654.521 C 890.551 668.522 880.477 681.124 866.484 682.722 C 852.39 684.33 839.676 674.168 838.139 660.066 C 836.602 645.964 846.829 633.302 860.939 631.837 z"/>
<path transform="translate(0,0)" fill="rgb(254,205,219)" d="M 877.394 673.699 C 852.97 690.997 829.436 656.106 851.941 639.528 C 857.193 635.66 867.54 636.851 873.672 638.45 C 886.712 645.293 887.471 665.844 877.394 673.699 z"/>
<path transform="translate(0,0)" fill="rgb(200,12,13)" d="M 877.394 673.699 C 852.97 690.997 829.436 656.106 851.941 639.528 C 857.193 635.66 867.54 636.851 873.672 638.45 C 873.091 639.682 871.891 642.446 871.179 643.421 C 865.291 642.549 860.29 641.244 854.969 644.022 C 850.872 648.261 852.629 659.095 851.917 664.944 C 851.506 668.323 852.786 669.578 855 671.754 C 858.302 672.927 858.714 672.856 862.004 671.831 C 866.577 667.744 861.234 664.239 864.015 661.087 L 866.661 661.416 C 868.504 667.644 865.122 667.06 871.679 673.045 C 873.423 673.23 875.719 673.399 877.394 673.699 z"/>
<path transform="translate(0,0)" fill="rgb(239,28,36)" d="M 873.672 638.45 C 886.712 645.293 887.471 665.844 877.394 673.699 C 875.719 673.399 873.423 673.23 871.679 673.045 C 872.69 672.318 872.955 671.527 873.525 670.419 C 871.61 659.176 877.466 651.124 871.179 643.421 C 871.891 642.446 873.091 639.682 873.672 638.45 z"/>
</svg>