<svg version="1.1" xmlns="http://www.w3.org/2000/svg" style="display: block;" viewBox="0 0 2160 2160" width="3840" height="2160" preserveAspectRatio="none">
<path transform="translate(0,0)" fill="rgb(255,255,255)" d="M 0 0 L 2160 0 L 2160 2160 L 0 2160 L 0 0 z"/>
<path transform="translate(0,0)" fill="rgb(0,89,178)" d="M 625.486 15.9183 L 1534.54 15.909 L 1534.54 1407.37 L 1534.54 1737.03 L 1534.59 1839.38 C 1534.6 1878.41 1536.6 1913.44 1527.3 1951.79 C 1514.47 2004.67 1482.01 2019.43 1438.22 2045.53 C 1425 2052.71 1412.06 2059.83 1398.71 2066.59 C 1184.67 2174.93 929.067 2165.93 721.89 2045.64 C 703.575 2035 676.329 2019.49 661.304 2004.91 C 619.896 1964.74 625.424 1889.35 625.43 1837.32 L 625.456 1713.95 L 625.454 1308.4 L 625.486 15.9183 z"/>
<path transform="translate(0,0)" fill="rgb(254,222,0)" d="M 806.461 94.1845 C 828.459 93.0345 859.295 93.9284 881.93 93.9312 L 881.991 176.496 L 1149.81 176.493 C 1149.89 236.174 1150.68 296.619 1148.62 356.248 C 1147.88 377.732 1143.55 408.357 1126.34 423.576 C 1104.51 441.399 1067.98 431.98 1042.14 431.092 C 1007.54 429.903 1001.95 450.395 1001.94 479.54 C 1052.11 422.034 1068 481.531 1105.78 476.056 C 1121.05 473.843 1126.27 458.026 1132.5 456.338 L 1134.16 459.126 C 1134.86 468.165 1127.47 478.508 1122.68 486.094 L 1142.03 486.055 L 1142.14 673.889 C 1162.39 652.925 1182.72 630.676 1202.71 609.36 L 1373.57 609.321 C 1392.75 627.396 1459.43 684.375 1468.16 702.934 C 1484.1 736.833 1467.08 776.888 1455.94 809.449 L 1436.5 866.107 C 1454.35 901.819 1467.19 939.823 1474.65 979.044 C 1498.23 1097.76 1484.28 1240.6 1415.65 1343.04 C 1443.14 1361.95 1452.77 1378.97 1465.58 1409.37 C 1463.71 1421.11 1451.25 1503.73 1447.97 1508.66 C 1439.59 1511.19 1440.33 1507 1440.23 1500.33 C 1439.61 1458.99 1422.23 1415.59 1377.69 1406.33 C 1355.71 1401.76 1330.91 1403.51 1308.32 1403.52 L 1211.53 1403.56 C 1213.19 1421.25 1220.78 1528.16 1213.11 1538.01 L 1210.38 1538.24 C 1209.63 1537.85 1208.89 1537.46 1208.14 1537.07 C 1205.73 1517.35 1201.37 1478.41 1198.64 1460.94 C 1178.97 1335.08 1131.36 1254.35 1051.59 1158.34 C 1051.22 1179.05 1053.11 1223.67 1050.78 1242.38 L 1049.07 1243.71 C 1047.13 1243.2 1044.79 1241.89 1044.23 1239.88 C 1013.95 1129.76 960.442 1055.52 890.019 966.477 C 889.407 991.856 891.157 1030.38 889.302 1056.66 C 888.804 1057.19 888.307 1057.72 887.81 1058.26 C 879.665 1057.56 878.005 1036.78 875.794 1028.76 C 867.874 999.189 857.678 970.272 845.296 942.272 C 805.32 851.314 742.929 776.44 707.986 686.01 C 691.159 642.315 681.228 596.27 678.551 549.524 C 675.051 486.917 679.15 399.221 722.595 350.706 C 722.705 356.88 723.623 382.26 722.072 386.402 C 714.913 405.527 710.458 421.73 707.302 442.23 C 685.369 584.669 752.744 692.897 834.072 803.526 C 896.617 887.09 967.329 965.34 1033.29 1046.29 C 1079.78 1103.35 1131.53 1163.96 1164.07 1230.15 C 1187.92 1278.65 1200.41 1328.94 1208.85 1381.93 C 1253.07 1369.09 1298.11 1358.07 1342.42 1345.44 C 1355.19 1341.8 1368.34 1338.24 1381.34 1335.63 C 1403.51 1309.62 1414.2 1286.84 1426.68 1255.69 C 1401.17 1252.16 1373.78 1247.94 1348.32 1245.21 C 1345.43 1256.04 1340.63 1276.55 1334.67 1285.04 L 1333.29 1285.22 C 1330.11 1277.89 1334.55 1252.57 1335.77 1243.24 C 1330.47 1242.69 1316.79 1242.57 1316.19 1235.96 C 1320.56 1230.38 1330.44 1229.47 1337.47 1228.05 C 1341.5 1190.91 1343.64 1153.6 1343.88 1116.25 C 1311.79 1113.85 1277.59 1109.8 1245.41 1106.54 C 1244.93 1116.5 1247.03 1153.6 1241.57 1158.88 C 1236.31 1154.59 1234.32 1114.59 1233.56 1105.38 C 1203.99 1103.04 1199.63 1091.65 1232.32 1089.31 C 1230 1046.96 1229.37 1004.54 1230.41 962.143 C 1211.28 960.386 1192.13 958.867 1172.97 957.586 C 1188.62 1010.13 1190.78 1065.13 1188.46 1119.58 C 1188.13 1127.25 1189.45 1151.18 1181.04 1153.58 C 1180.52 1153.24 1179.99 1152.89 1179.46 1152.54 C 1177.97 1132.22 1173.62 1097.33 1171.13 1078.83 C 1158.35 983.781 1113.63 914.994 1051.57 844.057 C 1051.47 856.19 1052.97 923.667 1050.02 928.571 L 1046.51 929.224 C 1045.82 928.808 1045.13 928.392 1044.44 927.976 C 1042.53 920.792 1040.59 910.049 1038.97 903.1 C 1034.77 885.064 1029.29 867.348 1022.57 850.088 C 992.916 774.51 946.887 730.124 889.49 675.789 C 829.727 619.213 822.725 537.735 823.877 459.527 C 830.775 466.501 837.804 474.172 844.589 481.324 C 847.912 529.416 862.037 602.022 909.447 627.427 C 942.956 645.384 996.7 622.875 1030.24 612.132 C 1055.41 604.071 1076.02 600.364 1100.56 612.899 C 1100.88 594.209 1100.58 574.721 1100.55 555.969 L 1080.39 555.962 C 1077.47 560.072 1074.04 563.987 1070.25 567.331 C 1059.65 576.692 1046.31 581.739 1032.11 580.661 C 1016.72 579.493 1003.42 571.046 993.524 559.603 C 968.816 531.038 964.185 486.43 966.932 450.276 C 969.469 416.894 981.162 383.28 1018.57 376.496 C 1035.87 373.36 1055.13 374.628 1072.73 374.208 C 1081.49 373.999 1092.64 374.126 1099.43 367.727 C 1113.04 354.896 1108.45 272.11 1108.42 250.476 C 1065.33 248.924 1011.12 250.219 967.276 250.495 L 967.196 349.874 C 949.443 338.232 931.287 325.627 913.653 313.706 L 913.546 289.955 L 939.266 289.891 C 939.588 277.142 939.295 263.253 939.26 250.421 C 907.906 249.947 875.407 250.379 843.958 250.367 L 843.857 167.845 C 829.854 167.615 805.057 164.816 794.096 174.987 C 766.361 200.724 765.986 265.851 786.796 295.714 C 792.155 303.404 800.316 305.015 808.988 305.657 L 808.971 353.986 C 783.504 353.309 768.486 341.054 755.486 320.382 C 718.104 260.941 723.705 113.642 806.461 94.1845 z"/>
<path transform="translate(0,0)" fill="rgb(0,89,178)" d="M 1213.84 678.421 L 1363.89 678.473 C 1385.15 696.535 1411.25 722.323 1432.15 741.779 C 1424.6 766.461 1414.5 793.924 1406.03 818.563 C 1398.93 810.434 1393.11 804.017 1385.39 796.341 C 1388.41 780.513 1391.64 764.396 1394.04 748.492 L 1365.29 720.536 C 1362.18 717.529 1358.09 712.916 1353.72 712.988 L 1352.54 714.929 C 1352.7 724.759 1361.31 741.887 1365.52 751.555 L 1356.2 774.832 C 1341.66 766.646 1332.63 764.355 1316.19 761.471 C 1307.35 760.596 1298.46 759.773 1289.61 760.782 C 1218.48 768.89 1174.7 839.899 1150.35 899.018 C 1131.66 863.121 1116.44 841.287 1091.34 809.403 C 1130.76 766.223 1173.41 720.604 1213.84 678.421 z"/>
<path transform="translate(0,0)" fill="rgb(0,89,178)" d="M 1256.81 964.29 L 1336.39 970.744 C 1341.16 1003.34 1343.11 1046.1 1343.83 1078.8 C 1337.49 1079.37 1331.15 1079.89 1324.8 1080.38 C 1307.07 1083.54 1265.73 1086.17 1246.13 1088.02 C 1247.4 1047.43 1251.79 1004.5 1256.81 964.29 z"/>
<path transform="translate(0,0)" fill="rgb(0,89,178)" d="M 1369.54 1119.14 L 1451.55 1127.33 C 1451.17 1154.87 1447.16 1178.31 1441.43 1204.98 L 1422.51 1209.17 L 1353.27 1224.6 C 1361.2 1186.52 1365.58 1157.74 1369.54 1119.14 z"/>
<path transform="translate(0,0)" fill="rgb(0,89,178)" d="M 1371.24 973.62 C 1393 975.256 1414.74 977.031 1436.48 978.943 C 1441.96 996.85 1452.07 1049.22 1450.93 1067.33 C 1449.02 1069.61 1449.23 1068.86 1445.18 1069.26 L 1372.33 1076.2 C 1374.29 1039.32 1371.82 1009.6 1371.24 973.62 z"/>
<path transform="translate(0,0)" fill="rgb(0,89,178)" d="M 1066.54 676.508 C 1067.79 676.341 1069.04 676.211 1070.3 676.117 C 1091.29 674.602 1106.54 682.047 1121.98 695.359 C 1114.47 703.414 1057.64 765.657 1053.91 766.274 C 1034.67 744.731 1014.02 721.695 995.707 699.493 C 1020.09 691.073 1041.16 681.911 1066.54 676.508 z"/>
<path transform="translate(0,0)" fill="rgb(0,89,178)" d="M 1286.21 825.229 C 1293.95 824.196 1299.05 824.35 1306.85 824.434 C 1317.05 853.319 1325.39 897.389 1330.4 927.424 C 1319.96 928.316 1309.53 929.309 1299.12 930.404 C 1286.35 931.557 1273.61 932.871 1260.88 934.344 C 1264.68 908.274 1269.12 882.302 1274.2 856.451 C 1275.95 847.431 1277.76 837.426 1280.46 828.575 C 1281.23 826.017 1283.51 826.031 1286.21 825.229 z"/>
<path transform="translate(0,0)" fill="rgb(0,89,178)" d="M 1236.22 849.698 C 1237.28 850.018 1236.57 849.729 1238.06 851.089 C 1235.64 880.925 1232.98 906.496 1231.47 936.959 C 1214.37 939.019 1195.36 940.413 1178.08 942.087 L 1176.97 941.46 L 1176.53 939.427 C 1186.07 908.517 1212.04 870.919 1236.22 849.698 z"/>
<path transform="translate(0,0)" fill="rgb(0,89,178)" d="M 1353.07 843.386 C 1362.93 847.52 1379.11 865.384 1385.85 873.672 C 1390.74 879.684 1412.64 910.906 1412.91 917.982 L 1410.99 919.466 C 1396.25 920.619 1380.9 922.35 1366.15 923.797 C 1362.7 896.336 1357.75 870.566 1353.07 843.386 z"/>
<path transform="translate(0,0)" fill="rgb(0,89,178)" d="M 1045.45 491.902 C 1054.55 491.687 1060.07 493.313 1068.45 496.135 C 1062.59 510.226 1056.35 518.861 1041.4 523.512 C 1030.07 523.27 1026.4 521.546 1017.25 515.593 C 1025.44 502.961 1030.36 495.855 1045.45 491.902 z"/>
<path transform="translate(0,0)" fill="rgb(255,255,255)" d="M 976.453 1548.69 C 1010.57 1548.65 1105.31 1544.89 1132.46 1553.87 C 1148.47 1559.17 1161.59 1569.74 1169.16 1584.99 C 1182.65 1612.15 1182.19 1654.02 1172.34 1682.25 C 1165.56 1701.7 1154.54 1716.33 1135.84 1725.49 C 1206.45 1741.32 1204.45 1846.66 1183.33 1898.81 C 1154.94 1954.92 1119.52 1951.53 1063.96 1951.38 L 1001.03 1951.32 L 1001.03 1717.99 L 1001.08 1650.21 C 1001.07 1621.23 1003.12 1586.3 986.253 1561.59 C 982.822 1556.56 977.633 1554.01 976.453 1548.69 z"/>
<path transform="translate(0,0)" fill="rgb(0,89,178)" d="M 1052.92 1748.88 C 1071.61 1748.73 1103.8 1746.26 1118.51 1757.2 C 1153.59 1783.31 1146.9 1865 1125.32 1896.33 C 1104.55 1918.06 1080.32 1913.53 1052.92 1913.31 L 1052.92 1748.88 z"/>
<path transform="translate(0,0)" fill="rgb(0,89,178)" d="M 1052.92 1587.06 C 1067.92 1586.99 1098.13 1584.53 1108.73 1593.56 C 1134.24 1615.33 1129.14 1673.65 1111.06 1697.9 C 1094.4 1714.61 1074.52 1711.86 1052.91 1711.69 L 1052.92 1587.06 z"/>
<path transform="translate(0,0)" fill="rgb(255,255,255)" d="M 717.129 1548.69 L 800.665 1548.57 C 822.996 1548.55 849.637 1547.28 871.569 1552.07 C 931.563 1565.18 933.482 1648.57 922.629 1695.8 C 915.262 1727.86 897.173 1746.02 869.344 1762.24 L 952.574 1951.3 L 887.433 1951.3 C 881.86 1938.63 876.465 1924.97 871.142 1912.13 C 851.257 1867.77 832.829 1818.13 813.379 1772.93 L 794.205 1772.93 L 794.199 1951.33 L 742.028 1951.32 C 740.982 1871 742.713 1789.76 741.988 1709.26 C 741.646 1671.27 743.894 1628.5 739.098 1590.74 C 737.894 1581.26 732.625 1570.14 727.462 1562.34 C 723.259 1555.99 718.596 1554.66 717.129 1548.69 z"/>
<path transform="translate(0,0)" fill="rgb(0,89,178)" d="M 794.203 1587.06 C 831.592 1586.68 866.374 1579.5 872.498 1628.77 C 876.407 1660.22 876.065 1693.94 856.649 1720.57 C 837.204 1740.52 819.92 1736.94 794.243 1736.72 L 794.203 1587.06 z"/>
<path transform="translate(0,0)" fill="rgb(254,222,0)" d="M 692.244 774.534 C 696.077 776.659 701.331 783.799 704.32 787.442 C 697.12 830.357 694.5 881.607 708.374 923.304 C 741.835 1023.87 828.659 1104.66 895.855 1183.56 C 972.651 1273.73 1036.98 1369.09 1049.17 1489.7 C 1049.67 1494.63 1052.09 1504.3 1050.29 1508.33 C 1047.12 1509.72 1048.76 1509.52 1045.15 1508.59 C 1043.05 1504.46 1041.76 1500.43 1040.52 1495.99 C 1035.09 1476.62 1028.39 1458.46 1020.58 1439.95 C 986.582 1365.71 946.698 1323.41 890.04 1265.68 C 889.903 1276.07 891.307 1352.79 888.277 1356.3 L 885.48 1356.45 C 879.816 1353.03 877.978 1337.34 875.952 1330.36 C 870.961 1313.06 865.333 1295.96 859.08 1279.08 C 842.402 1233.94 820.24 1191.02 793.091 1151.29 C 766.803 1113.26 739.495 1081.45 718.074 1039.42 C 676.44 957.739 663.88 862.532 692.244 774.534 z"/>
<path transform="translate(0,0)" fill="rgb(255,255,255)" d="M 1357.66 1543.38 C 1385.82 1538.7 1418.65 1548.29 1439.17 1568.28 C 1436.73 1588.41 1431.06 1620.75 1426.95 1640.65 C 1420.97 1618.81 1406.12 1593.75 1382.61 1588.7 C 1292.33 1569.3 1295.26 1711.74 1296.41 1768.19 C 1297.12 1803.09 1304.67 1846.73 1322.36 1875.78 C 1345.75 1914.21 1385.32 1921.66 1422.68 1897.95 C 1429.62 1892.84 1434.38 1887.18 1439.85 1880.62 L 1439.89 1927.24 C 1426.18 1944.52 1402.85 1953.98 1381.5 1956.57 C 1289.69 1967.7 1253.24 1887.26 1244.56 1808.99 C 1234.75 1720.51 1242.82 1555.85 1357.66 1543.38 z"/>
</svg>