<svg version="1.1" xmlns="http://www.w3.org/2000/svg" style="display: block;" viewBox="0 0 1024 1024" width="256" height="256" preserveAspectRatio="none">
<path transform="translate(0,0)" fill="rgb(255,255,255)" d="M 0 0 L 1024 0 L 1024 1024 L 0 1024 L 0 0 z"/>
<path transform="translate(0,0)" fill="rgb(238,18,30)" d="M 499.361 316.259 C 605.819 307.026 699.52 386.044 708.389 492.534 C 717.258 599.023 637.92 692.453 531.402 700.959 C 425.396 709.423 332.514 630.551 323.687 524.575 C 314.861 418.599 393.415 325.448 499.361 316.259 z"/>
<path transform="translate(0,0)" fill="rgb(238,18,30)" d="M 478.584 126.429 C 517.957 124.801 562.762 126.491 602.416 126.844 L 855.73 130.251 C 851.536 143.423 829.752 163.646 819.81 174.661 L 733.664 268.279 C 714.175 269.263 691.196 268.58 671.392 268.564 L 558.915 268.543 C 510.571 268.562 481.869 267.242 434.937 281.897 C 417.565 287.432 406.685 292.927 391.488 303.01 C 327.953 345.163 290.663 400.571 277.19 477.335 C 273.462 464.872 267.849 453.529 263.435 441.412 C 256.012 421.036 252.293 395.337 251.284 373.755 C 248.959 321.701 263.978 270.349 293.984 227.751 C 306.85 209.838 324.609 191.515 341.921 177.896 C 380.843 146.645 428.715 128.616 478.584 126.429 z"/>
<path transform="translate(0,0)" fill="rgb(238,18,30)" d="M 759.725 543.693 C 763.402 546.619 765.293 557.427 766.619 562.197 C 775.313 593.466 781.969 625.028 781.89 657.67 C 781.407 708.733 764.205 758.231 732.916 798.588 C 702.915 836.891 654.647 871.939 606.726 881.882 C 542.479 895.211 473.992 889.31 408.67 888.303 C 340.068 887.158 271.46 886.377 202.85 885.957 C 193.552 885.704 184.25 885.691 174.952 885.92 C 197.142 860.175 220.357 835.629 243.272 810.592 C 256.084 796.593 265.088 782.935 280.525 770.833 C 284.029 768.086 292.248 753.627 297.038 748.3 L 453.689 748.463 C 504.235 748.482 565.515 753.503 611.555 731.582 C 669.037 704.212 711.879 660.278 739.106 602.977 C 746.15 588.154 749.458 554.89 759.038 544.432 L 759.725 543.693 z"/>
</svg>