<svg version="1.1" xmlns="http://www.w3.org/2000/svg" style="display: block;" viewBox="0 0 1324 1024" width="331" height="256" preserveAspectRatio="none">
<defs>
	<linearGradient id="Gradient1" gradientUnits="userSpaceOnUse" x1="792.852" y1="646.13" x2="761.552" y2="652.25">
		<stop class="stop0" offset="0" stop-opacity="1" stop-color="rgb(36,40,54)"/>
		<stop class="stop1" offset="1" stop-opacity="1" stop-color="rgb(21,31,73)"/>
	</linearGradient>
</defs>
<path transform="translate(0,0)" fill="rgb(255,255,255)" d="M 0 0 L 1324 0 L 1324 1024 L 0 1024 L 0 0 z"/>
<path transform="translate(0,0)" fill="rgb(33,40,69)" d="M 680.637 377.183 C 683.864 376.872 686.342 376.226 689.102 377.681 C 693.515 382.862 691.668 394.915 691.309 402.2 C 697.751 397.481 704.83 390.237 711.371 386.232 C 738.215 369.794 778.31 386.082 793.922 411.005 C 809.657 436.752 809.052 467.708 804.992 496.016 C 799.079 537.245 759.9 569.749 717.129 560.365 C 708.388 556.65 699.091 549.565 691.637 543.68 C 692.167 563.441 691.715 583.439 692.003 603.223 C 692.131 611.976 692.171 621.896 690.843 630.47 C 683.141 631.406 658.471 632.229 651.806 629.531 C 650.409 627.15 650.067 620.981 650.047 618.065 C 649.606 551.606 649.952 485.13 649.902 418.667 C 649.895 408.395 649.309 395.941 651.723 386.078 C 661.045 382.168 670.73 379.189 680.637 377.183 z"/>
<path transform="translate(0,0)" fill="rgb(255,255,255)" d="M 717.546 415.256 C 730.011 413.476 741.677 414.219 751.03 424.751 C 770.813 447.029 768.816 512.676 738.406 525.606 C 716.896 531.156 703.72 525.86 692.262 507.543 C 691.34 492.526 689.188 441.121 695.217 429.38 C 699.539 420.963 709.218 418.055 717.546 415.256 z"/>
<path transform="translate(0,0)" fill="rgb(33,40,69)" d="M 396.501 376.376 C 399.88 376.274 398.94 375.793 401.027 377.542 C 403.01 382.263 402.097 395.077 401.926 400.628 C 420.095 386.951 431.427 378.749 455.738 379.986 C 475.76 381.006 483.631 390.117 495.896 404.046 C 496.452 403.504 497.029 402.984 497.627 402.488 C 515.646 387.82 539.514 377.642 563.046 379.843 C 578.111 381.252 593.958 393.974 603.777 405.178 C 612.07 414.642 612.847 433.966 613.718 445.993 C 614.473 471.157 613.862 496.309 614.016 521.46 C 614.089 533.24 614.174 545.228 612.705 556.836 C 599.792 557.14 586.873 557.111 573.96 556.749 C 566.641 528.43 580.659 439.348 563.617 421.869 C 559.718 417.871 552.943 417.282 547.696 417.176 C 533.374 416.888 517.866 421.882 507.499 432.144 C 504.82 434.796 504.426 436.554 504.351 440.248 C 505.48 457.416 506.924 542.192 503.87 556.785 C 491.036 556.968 479.304 557.136 466.481 556.556 C 464.058 545.555 464.92 529.953 464.845 518.246 C 464.315 499.502 465.639 478.493 464.899 459.955 C 464.152 441.271 465.44 414.888 440.144 417.077 C 419.189 418.891 415.685 423.247 401.994 437.694 L 402.059 509.188 C 402.062 523.766 402.711 542.763 400.416 556.7 C 387.655 557.078 374.885 557.13 362.121 556.854 C 362.082 556.683 362.041 556.513 362.005 556.342 C 358.232 538.401 358.461 402.694 362.21 384.496 C 375.974 381.17 380.787 378.255 396.501 376.376 z"/>
<path transform="translate(0,0)" fill="rgb(33,40,69)" d="M 178.852 380.369 C 204.364 378.507 222.754 381.171 243.224 396.465 C 240.511 405.311 237.903 414.649 234.012 423.008 C 227.245 419.99 220.007 418.293 212.607 416.496 C 196.688 412.629 180.581 410.973 167.49 422.816 C 166.177 424.005 165.939 429.472 166.058 431.275 C 166.756 441.881 180.411 445.385 188.284 449.215 C 201.472 455.493 221.739 459.254 232.436 469.591 C 242.267 479.09 248.833 491.802 248.828 505.449 C 248.823 517.847 246.229 531.703 236.59 540.489 C 222.71 553.967 201.358 562.008 182.355 562.248 C 159.661 561.913 141.947 553.017 121.329 544.172 C 125.457 531.825 127.936 525.643 135.102 514.938 C 145.916 524.873 194.114 536.933 203.606 522.256 C 221.68 491.966 180.383 488.381 160.422 479.195 C 135.633 467.787 109.532 437.126 129.29 409.498 C 140.078 394.415 159.32 382.569 178.852 380.369 z"/>
<path transform="translate(0,0)" fill="rgb(33,40,69)" d="M 877.089 306.18 L 878.874 307.144 C 881.5 311.511 881.517 538.81 878.656 556.728 C 866.307 557.13 853.95 557.16 841.599 556.82 C 836.176 551.537 837.864 523.615 837.859 514.954 L 837.845 457.721 C 837.846 412.393 836.664 360.854 838.254 315.933 C 850.176 312.18 864.828 308.925 877.089 306.18 z"/>
<path transform="translate(0,0)" fill="rgb(33,40,69)" d="M 958.987 382.923 C 962.958 382.954 961.783 382.435 964.55 384.245 C 967.29 389.72 966.049 543.689 964.378 556.892 C 953.402 557.276 941.777 557.081 930.75 557.077 C 927.471 556.723 927.657 557.289 925.549 555.309 C 921.588 541.17 923.638 418.121 924.098 396.71 C 931.756 392.969 949.471 386.986 958.987 382.923 z"/>
<path transform="translate(0,0)" fill="rgb(33,40,69)" d="M 317.826 382.851 C 321.217 382.79 320.363 382.304 322.669 383.943 C 324.447 393.838 323.818 433.447 323.83 446.057 L 323.89 507.474 C 323.9 524.148 324.538 540.5 321.937 556.973 L 287.778 557.072 C 284.834 556.726 285.947 557.161 283.547 555.405 C 281.091 544.172 281.782 527.704 281.867 515.974 C 282.155 476.32 281.317 436.364 282.161 396.75 C 292.757 391.654 306.429 387.532 317.826 382.851 z"/>
<path transform="translate(0,0)" fill="rgb(33,40,69)" d="M 1044.8 383.003 L 1048.55 382.928 L 1049.96 384.481 C 1051.77 392.425 1051.09 438.905 1051.09 449.125 L 1051.05 511.466 C 1051.03 526.418 1051.47 542.175 1049.75 556.97 C 1038.25 557.298 1026.29 557.132 1014.75 557.132 C 1013.41 556.896 1012.38 557.069 1011.56 555.906 C 1008.1 551.027 1007.66 410.601 1010.14 396.141 L 1044.8 383.003 z"/>
<path transform="translate(0,0)" fill="rgb(236,27,46)" d="M 1021.74 321.287 C 1026.38 320.887 1034.28 320.381 1038.36 322.226 C 1060.26 332.132 1058.4 356.388 1036.74 364.845 C 1012.69 368.508 1005.37 357.435 1006.06 335.485 C 1010.32 327.247 1013.52 324.807 1021.74 321.287 z"/>
<path transform="translate(0,0)" fill="rgb(236,27,46)" d="M 937.967 321.289 C 958.182 319.921 974.496 329.491 965.934 353.888 C 963.986 359.44 956.18 363.309 950.583 364.941 C 914.016 367.467 911.201 329.465 937.967 321.289 z"/>
<path transform="translate(0,0)" fill="rgb(33,40,69)" d="M 843.661 622.543 C 862.249 623.15 871.881 649.756 880.95 663.606 C 880.933 654.517 879.87 632.202 883.18 624.781 C 885.725 622.588 884.419 623.114 888.414 623.218 C 891.597 627.204 890.024 670.507 889.881 679.334 C 888.648 679.263 884.31 678.927 883.629 678.406 C 874.801 671.662 857.463 646.38 854.106 636.734 C 853.189 643.201 852.135 675.232 850.725 677.652 C 848.32 678.241 847.717 678.58 845.373 678.08 C 841.839 672.258 843.241 631.335 843.661 622.543 z"/>
<path transform="translate(0,0)" fill="rgb(33,40,69)" d="M 962.265 622.255 C 972.67 622.828 992.214 653.593 998.959 662.856 C 999.134 654.589 996.69 627.948 1002.19 623.224 C 1005.47 622.928 1004.26 622.636 1006.92 624.06 C 1008.46 636.287 1007.85 662.636 1007.9 675.929 C 1007.76 676.333 1006.73 677.935 1006.44 678.408 L 1003.52 678.908 C 997.732 677.448 974.518 649.44 970.158 642.983 C 970.174 649.496 971.154 674.009 968.186 678.292 C 964.576 678.553 964.266 679.227 961.795 677.539 C 960.36 668.133 960.8 631.896 962.265 622.255 z"/>
<path transform="translate(0,0)" fill="rgb(33,40,69)" d="M 923.026 622.452 L 927.416 623.081 C 933.145 627.644 952.862 671.644 950.373 679.327 L 947.698 680.518 C 938.183 675.251 939.149 674.725 934.359 666.014 C 928.481 665.696 920.913 665.954 914.889 666.014 C 914.6 667.436 914.295 668.855 913.971 670.27 C 912.863 675.07 912.461 676.021 908.672 678.419 C 904.944 678.325 906.019 678.866 903.754 676.954 C 904.107 671.807 919.521 628.229 923.026 622.452 z"/>
<path transform="translate(0,0)" fill="rgb(255,255,255)" d="M 925.176 634.699 C 927.747 638.377 932.496 654.644 930.357 658.666 L 926.273 659.338 C 923.468 659.37 920.897 659.655 918.422 658.326 C 919.82 652.125 922.426 639.853 925.176 634.699 z"/>
<path transform="translate(0,0)" fill="rgb(33,40,69)" d="M 1124.23 627.923 C 1128.18 620.47 1134.88 622.32 1135.57 626.863 C 1136.9 635.552 1152.56 671.656 1152.37 677.469 C 1149.81 678.759 1148.17 679.958 1145.34 679.339 C 1136.28 671.226 1147.94 665.613 1128.62 665.685 L 1119.8 666.068 L 1115.89 678.157 C 1110.48 677.849 1107.34 678.344 1102.03 679.012 C 1108.36 663.802 1116.62 653.787 1120.55 638.713 C 1121.21 635.618 1123.06 631.043 1124.23 627.923 z"/>
<path transform="translate(0,0)" fill="rgb(33,40,69)" d="M 1124.23 627.923 C 1128.18 620.47 1134.88 622.32 1135.57 626.863 C 1136.9 635.552 1152.56 671.656 1152.37 677.469 C 1149.81 678.759 1148.17 679.958 1145.34 679.339 C 1136.28 671.226 1147.94 665.613 1128.62 665.685 C 1132.6 664.656 1132.89 665.237 1135.41 662.729 L 1134.62 659.645 L 1135.55 658.815 C 1135.88 655.269 1131.43 637.963 1129.7 634.494 L 1127.71 637.955 C 1122.83 636.953 1124.47 636.556 1120.55 638.713 C 1121.21 635.618 1123.06 631.043 1124.23 627.923 z"/>
<path transform="translate(0,0)" fill="rgb(33,40,69)" d="M 1124.23 627.923 C 1127.53 630.334 1128.26 630.698 1129.7 634.494 L 1127.71 637.955 C 1122.83 636.953 1124.47 636.556 1120.55 638.713 C 1121.21 635.618 1123.06 631.043 1124.23 627.923 z"/>
<path transform="translate(0,0)" fill="rgb(255,255,255)" d="M 1129.7 634.494 C 1131.43 637.963 1135.88 655.269 1135.55 658.815 L 1134.62 659.645 C 1131.18 659.1 1125.4 659.535 1121.73 659.678 C 1124.55 651.36 1126.24 646.534 1127.71 637.955 L 1129.7 634.494 z"/>
<path transform="translate(0,0)" fill="rgb(33,40,69)" d="M 1040.41 623.201 C 1046.19 622.687 1058.57 622.773 1062.49 627.603 L 1062.14 629.432 C 1056.51 635.279 1050.53 628.546 1044.12 629.999 C 1029.47 633.321 1029.01 664.484 1041.41 670.853 C 1046.63 673.535 1054.36 670.946 1059.48 668.979 C 1060.47 670.469 1060.65 671.882 1061.06 673.629 C 1057.59 681.468 1041.56 679.582 1034.9 677.478 C 1017.28 671.908 1016.35 652.941 1020.64 637.905 C 1023 629.671 1033.35 626.359 1040.41 623.201 z"/>
<path transform="translate(0,0)" fill="url(#Gradient1)" d="M 763.963 623.447 C 772.584 623.324 779.732 623.299 788.318 623.832 C 792.16 623.623 795.6 622.911 798.592 625.139 L 799.044 626.757 C 795.203 631.496 783.509 631.508 778.324 629.941 C 776.565 633.029 777.337 644.801 777.429 648.868 C 782.406 648.836 794.033 647.681 796.222 652.86 C 792.281 657.14 783.29 656.08 777.841 655.956 C 777.206 662.882 777.331 671.215 777.271 678.29 C 773.108 678.334 768.258 678.682 764.038 678.874 C 764.201 660.486 764.004 641.855 763.963 623.447 z"/>
<path transform="translate(0,0)" fill="rgb(33,40,69)" d="M 788.318 623.832 C 792.16 623.623 795.6 622.911 798.592 625.139 L 799.044 626.757 C 795.203 631.496 783.509 631.508 778.324 629.941 C 777.881 628.349 774.7 625.754 773.313 624.452 C 779.185 624.547 782.536 624.366 788.318 623.832 z"/>
<path transform="translate(0,0)" fill="rgb(33,40,69)" d="M 817.578 623.38 C 821.403 622.895 830.333 622.69 832.874 625.506 C 832.004 628.34 830.568 628.391 827.432 630.37 C 825.77 636.605 826.564 659.179 826.295 667.09 C 826.15 671.361 829.153 672.538 832.554 675.165 L 832.519 677.337 C 830.024 678.467 822.874 678.309 819.75 678.393 C 816.374 678.325 810.582 678.647 807.998 676.933 L 807.867 674.448 C 811.496 671.529 813.278 674.438 817.381 671.293 C 818.924 664.14 817.065 642.117 817.876 633.116 C 818.372 627.609 812.08 630.956 807.063 626.849 L 807.511 625.168 C 810.152 623.036 814.021 623.449 817.578 623.38 z"/>
<path transform="translate(0,0)" fill="rgb(33,40,69)" d="M 1165.11 678.835 C 1166.34 662.388 1165.3 645.819 1165.61 629.367 C 1165.67 625.974 1168.3 622.2 1171.97 622.048 C 1179.24 627.058 1170.3 662.255 1175.81 671.365 C 1183.45 671.026 1191.42 670.597 1198.82 672.834 L 1200.23 675.084 L 1199.9 676.467 L 1198.32 677.216 C 1191.31 678.29 1173.16 678.527 1165.11 678.835 z"/>
<path transform="translate(0,0)" fill="rgb(4,9,18)" d="M 1175.81 671.365 C 1183.45 671.026 1191.42 670.597 1198.82 672.834 L 1200.23 675.084 L 1199.9 676.467 L 1198.32 677.216 C 1191.1 675.423 1180.68 680.121 1175.4 674.924 L 1175.81 671.365 z"/>
<path transform="translate(0,0)" fill="rgb(33,40,69)" d="M 1084.56 623.482 C 1088.36 623.388 1091.91 622.817 1094.79 624.578 C 1094.5 629.257 1091.95 628.071 1090.71 630.521 C 1087.3 637.25 1089.46 657.058 1088.97 665.137 C 1088.45 673.643 1090.85 670.798 1095.16 674.926 L 1095.08 677.015 C 1093.21 678.507 1088.21 678.319 1085.54 678.442 C 1081.62 678.508 1076.24 679.34 1073.87 676.002 L 1074.33 674.298 C 1076.77 673.238 1077.87 672.91 1079.78 671.012 C 1081.06 663.276 1080.17 639.783 1079.95 630.954 C 1077.12 629.165 1074.91 628.379 1074.57 625.039 C 1077.24 623.04 1081.07 623.495 1084.56 623.482 z"/>
</svg>