<svg version="1.1" xmlns="http://www.w3.org/2000/svg" style="display: block;" viewBox="0 0 1024 1024" width="256" height="256" preserveAspectRatio="none">
<path transform="translate(0,0)" fill="rgb(235,112,40)" d="M 0 0 L 1024 0 L 1024 1024 L 0 1024 L 0 0 z"/>
<path transform="translate(0,0)" fill="rgb(254,254,254)" d="M 264.309 338.441 C 285.601 336.938 316.896 337.841 338.859 337.838 L 472.644 337.833 L 618.588 337.808 C 645.424 337.792 672.664 337.537 699.486 338.222 C 706.374 338.252 709.881 339.61 716.004 342.675 C 726.501 346.597 737.961 365.954 732.137 376.994 C 723.48 393.407 711.392 412.763 701.246 428.612 C 697.42 434.587 692.929 440.319 689.383 446.288 C 652.308 508.702 607.87 568.523 572.134 631.473 C 559.72 648.219 551.487 660.541 540.942 678.571 C 535.039 688.005 527.707 697.27 522.069 706.797 C 508.904 729.039 501.787 747.473 478.433 760.994 C 466.566 757.915 459.061 754.926 451.886 744.711 C 451.523 730.555 455.341 715.361 458.325 701.462 C 464.687 671.833 470.672 636.793 466.078 606.669 C 462.633 584.086 455.544 545.888 445.933 524.966 C 428.61 487.258 392.232 449.786 358.099 426.579 C 343.598 416.719 321.213 406.918 305.52 398.177 C 300.255 395.146 294.113 392.959 288.685 390.491 C 275.276 384.393 248.175 383.338 247.119 364.801 C 246.365 351.565 249.742 339.727 264.309 338.441 z"/>
</svg>