<svg version="1.1" xmlns="http://www.w3.org/2000/svg" style="display: block;" viewBox="0 0 2000 1792" width="500" height="448" preserveAspectRatio="none">
<path transform="translate(0,0)" fill="rgb(85,186,72)" d="M 0 0 L 2000 0 L 2000 1792 L 0 1792 L 0 0 z"/>
<path transform="translate(0,0)" fill="rgb(254,254,254)" d="M 225.631 359.476 C 254.816 358.52 285.442 359.398 314.78 359.409 L 484.127 359.427 L 1005.01 359.421 L 1263.56 359.399 C 1339 359.371 1405.31 356.465 1480.12 369.023 C 1725.23 410.169 1778.23 636.836 1778.74 853.493 C 1779.23 1062.71 1752.88 1326.72 1506.81 1383.21 C 1403.32 1406.97 1305.23 1401.61 1200.12 1401.6 L 971.27 1401.56 C 930.271 1401.56 888.079 1401.05 847.154 1401.7 L 847.134 562.205 L 1081.04 562.233 L 1081.09 837.5 L 1081.13 1253.08 L 1228.24 1253.12 C 1273.52 1253.14 1324.48 1255.95 1368.29 1245.8 C 1396.51 1239.27 1424.18 1224.29 1444.75 1203.68 C 1520.38 1127.9 1526.15 971.969 1526.54 870.499 C 1524.45 769.577 1523.79 637.589 1449.92 559.905 C 1399.31 506.689 1320.03 508.453 1252.8 508.455 L 1146.02 508.503 L 781.941 508.606 L 781.998 1401.71 C 765.384 1400.31 723.045 1401.62 704.365 1401.63 L 549.936 1401.64 L 550.031 508.633 C 506.701 507.844 461.824 508.367 418.362 508.365 L 209.957 508.688 C 209.446 459.253 209.835 409.127 209.912 359.647 L 225.631 359.476 z"/>
</svg>