<svg version="1.1" xmlns="http://www.w3.org/2000/svg" style="display: block;" viewBox="0 0 3840 1183" width="3840" height="1183" preserveAspectRatio="none">
<path transform="translate(0,0)" fill="rgb(238,45,48)" d="M 3070.21 102.193 L 3070.71 102.649 C 3071.63 108.034 3071.18 146.836 3071.18 154.87 L 3071.14 277.25 L 3410.94 277.251 C 3412.89 419.247 3451.11 619.384 3552.66 725.367 C 3619.32 576.91 3636.76 438.323 3643.87 277.252 L 3827.21 277.252 C 3816.67 424.536 3784.34 569.442 3731.28 707.239 C 3662.87 882.233 3551.28 1056.53 3381.35 1147.61 C 3366.11 1155.78 3350.83 1162.69 3335 1169.63 C 3316.95 1126 3299.09 1079.67 3281.92 1035.58 L 3300.64 1028 C 3380.05 993.033 3444.93 931.683 3484.27 854.351 C 3479.98 851.275 3475.75 848.112 3471.58 844.863 C 3335.15 739.138 3257.8 560.905 3236.59 392.963 L 3071.14 392.963 L 3071.13 612.216 L 3071.07 680.639 C 3071.06 714.015 3066.18 765.973 3108.59 776.465 C 3134.08 782.772 3165.1 777.155 3187.68 763.85 L 3225.64 871.47 C 3185.74 897.984 3127.29 906.611 3080.4 906.884 C 3026.56 906.776 2970.12 895.585 2930.77 856.174 C 2884.14 809.466 2882.71 754.154 2882.75 692.858 L 2882.81 624.24 L 2882.78 392.963 L 2801.76 392.963 L 2801.76 277.252 L 2882.77 277.252 L 2882.78 155.03 L 3070.21 102.193 z"/>
<path transform="translate(0,0)" fill="rgb(238,45,48)" d="M 975.193 266.557 C 1061.92 260.455 1176.06 277.355 1229.62 352.716 C 1270.76 410.592 1265.21 475.957 1265.18 542.905 L 1265.18 703.885 L 1265.22 795.88 C 1265.23 811.949 1265.95 829.85 1264.07 845.661 C 1263.04 854.341 1259.06 859.125 1251.63 863.886 C 1234.16 875.093 1206.05 882.985 1185.74 887.335 C 1091.41 907.532 984.587 914.507 889.477 896.654 C 829.318 885.363 773.633 861.5 738.822 809.643 C 723.023 785.062 715.699 756.789 713.629 727.899 C 699.094 525.039 927.963 499.086 1077.95 488.88 C 1078.04 467.401 1079.58 446.004 1071.51 425.581 C 1056.14 386.636 1012.59 378.939 975.492 377.61 C 911.918 375.332 852.272 391.395 794.094 415.383 L 756.269 312.809 C 822.052 284.56 904.112 269.663 975.193 266.557 z M 935.331 777.29 C 962.479 793.329 990.254 796.498 1020.86 795.157 C 1033.67 794.596 1069.25 793.092 1074.39 781.384 C 1080.1 768.374 1078.05 724.95 1078.05 709.158 L 1077.95 592.884 C 1074.44 593.003 1066.89 593.028 1063.72 593.426 C 1016.49 596.715 956.571 605.545 924.109 643.479 C 891.636 681.426 893.007 747.006 935.331 777.29 z"/>
<path transform="translate(0,0)" fill="rgb(238,45,48)" d="M 514.071 103.878 L 693.893 103.875 C 694.2 155.849 691.461 200.613 686.845 252.238 C 664.327 463.071 602.295 698.659 447.502 853.035 C 439.935 860.581 411.784 887.682 403.799 890.641 C 389.025 896.116 345.166 892.66 327.579 893.597 C 323.034 893.839 308.597 893.131 305.328 891.593 C 290.19 884.472 267.155 861.241 255.35 849.341 C 75.7111 668.25 11.5483 349.84 12.9437 103.875 L 192.634 103.875 C 190.688 138.66 195.329 205.513 198.725 240.718 C 214.004 399.063 252.221 608.343 353.329 736.593 C 471.913 589.793 515.851 286.154 514.071 103.878 z"/>
<path transform="translate(0,0)" fill="rgb(238,45,48)" d="M 1630.58 266.499 C 1632.4 266.451 1634.21 266.422 1636.03 266.414 C 1714.36 266.071 1813.09 277.06 1870.96 334.705 C 1892.99 356.792 1908.14 384.791 1914.58 415.313 C 1920.29 441.979 1919.74 477.872 1919.74 505.489 L 1919.68 589.033 L 1919.71 895.299 L 1732.38 895.303 L 1732.39 594.433 L 1732.42 502.925 C 1732.41 440.606 1735.72 392.248 1659.24 379.198 C 1627.82 375.904 1596.45 379.367 1566.08 387.825 C 1564.68 388.214 1557.6 391.119 1557.36 392.307 C 1553.31 412.161 1555.03 441.114 1555.03 461.665 L 1555.03 569.583 L 1555.06 895.303 L 1367.78 895.303 L 1367.75 508.921 L 1367.73 389.689 C 1367.74 374.081 1366.86 342.032 1368.22 327.536 C 1368.64 323.379 1370.43 319.478 1373.3 316.446 C 1381.05 308.355 1400.09 301.686 1410.85 298.239 C 1481.1 275.709 1557.21 267.877 1630.58 266.499 z"/>
<path transform="translate(0,0)" fill="rgb(238,45,48)" d="M 2304.5 266.501 C 2356.23 264.399 2404.92 272.947 2451.54 295.468 C 2437.65 331.484 2424.3 370.391 2411.04 406.862 C 2262.46 352.369 2183.12 471.653 2191.32 609.006 C 2199.1 739.399 2294.35 811.288 2419.94 766.391 C 2432.03 802.496 2447.26 841.753 2460.37 877.84 C 2449.47 883.163 2440.55 886.897 2429.22 891.178 C 2394.29 902.215 2370.49 904.653 2335.02 906.555 C 2145.55 915.48 2006.68 804.05 2002.47 609.688 C 1998.25 415.07 2101.8 273.005 2304.5 266.501 z"/>
<path transform="translate(0,0)" fill="rgb(238,45,48)" d="M 2531.74 277.252 L 2719.11 277.252 L 2719.11 895.303 L 2531.74 895.302 L 2531.74 277.252 z"/>
<path transform="translate(0,0)" fill="rgb(238,45,48)" d="M 2612.66 13.3585 C 2640.36 9.50875 2674.97 18.6704 2697.11 35.7668 C 2716 50.0853 2728.26 71.4639 2731.08 94.9983 C 2734.18 118.479 2727.75 142.222 2713.23 160.936 C 2695.41 183.687 2669.07 195.658 2640.84 199.086 C 2586.43 205.944 2527.27 176.486 2519.84 117.94 C 2516.71 94.5196 2523.04 70.8168 2537.44 52.0785 C 2556.2 27.9759 2583.11 17.031 2612.66 13.3585 z"/>
</svg>